<svg xmlns="http://www.w3.org/2000/svg" xmlns:xlink="http://www.w3.org/1999/xlink" width="205.143" height="144.486" viewBox="0 0 205.143 144.486">
  <defs>
    <linearGradient id="linear-gradient" x1="0.485" y1="1.082" x2="0.519" y2="-0.102" gradientUnits="objectBoundingBox">
      <stop offset="0" stop-color="#dae3fe"/>
      <stop offset="1" stop-color="#e9effd"/>
    </linearGradient>
    <linearGradient id="linear-gradient-2" x1="0.878" y1="-0.071" x2="-1.173" y2="3.028" gradientUnits="objectBoundingBox">
      <stop offset="0" stop-color="#fe7062"/>
      <stop offset="1" stop-color="#ff928e"/>
    </linearGradient>
    <linearGradient id="linear-gradient-3" x1="0.822" y1="0.039" x2="-3.032" y2="5.179" xlink:href="#linear-gradient-2"/>
    <linearGradient id="linear-gradient-4" x1="0.958" y1="-0.846" x2="-1.041" y2="5.105" xlink:href="#linear-gradient-2"/>
    <linearGradient id="linear-gradient-5" x1="-3.433" y1="2.406" x2="-4.372" y2="3.804" xlink:href="#linear-gradient-2"/>
    <linearGradient id="linear-gradient-6" x1="-1.946" y1="1.305" x2="-2.884" y2="2.703" xlink:href="#linear-gradient-2"/>
    <linearGradient id="linear-gradient-7" x1="-1.807" y1="-1.496" x2="-2.746" y2="-0.098" xlink:href="#linear-gradient-2"/>
    <linearGradient id="linear-gradient-8" x1="0.388" y1="2.607" x2="-0.559" y2="4.001" xlink:href="#linear-gradient-2"/>
    <linearGradient id="linear-gradient-9" x1="-0.326" y1="1.532" x2="-1.273" y2="2.926" xlink:href="#linear-gradient-2"/>
    <linearGradient id="linear-gradient-10" x1="0.572" y1="0.483" x2="-0.479" y2="-0.89" gradientUnits="objectBoundingBox">
      <stop offset="0" stop-color="#4042e2"/>
      <stop offset="1" stop-color="#4f52ff"/>
    </linearGradient>
    <linearGradient id="linear-gradient-11" x1="150.702" y1="-1.948" x2="147.866" y2="4.434" gradientUnits="objectBoundingBox">
      <stop offset="0" stop-color="#09005d"/>
      <stop offset="1" stop-color="#1a0f91"/>
    </linearGradient>
    <linearGradient id="linear-gradient-12" x1="598.319" y1="-2.296" x2="599.32" y2="-2.296" gradientUnits="objectBoundingBox">
      <stop offset="0" stop-color="#ff928e"/>
      <stop offset="1" stop-color="#feb3b1"/>
    </linearGradient>
    <linearGradient id="linear-gradient-13" x1="189.149" y1="-0.154" x2="186.134" y2="0.701" xlink:href="#linear-gradient-11"/>
    <linearGradient id="linear-gradient-14" x1="373.538" y1="-3.935" x2="366.517" y2="3.629" xlink:href="#linear-gradient-11"/>
    <linearGradient id="linear-gradient-15" x1="697.642" y1="-1.611" x2="698.652" y2="-1.611" xlink:href="#linear-gradient-12"/>
    <linearGradient id="linear-gradient-16" x1="126.699" y1="-0.219" x2="124.68" y2="0.624" xlink:href="#linear-gradient-11"/>
    <linearGradient id="linear-gradient-17" x1="0.182" y1="0.239" x2="2.274" y2="2.178" xlink:href="#linear-gradient-10"/>
    <linearGradient id="linear-gradient-18" x1="115.494" y1="0.015" x2="116.487" y2="0.015" xlink:href="#linear-gradient-12"/>
    <linearGradient id="linear-gradient-19" x1="-104.46" y1="0.589" x2="-102.477" y2="3.272" xlink:href="#linear-gradient-12"/>
    <linearGradient id="linear-gradient-20" x1="0.673" y1="-3.623" x2="0.516" y2="-0.005" xlink:href="#linear-gradient-12"/>
    <linearGradient id="linear-gradient-21" x1="0.678" y1="0.719" x2="5.936" y2="5.656" xlink:href="#linear-gradient-10"/>
    <linearGradient id="linear-gradient-22" x1="92.04" y1="-0.333" x2="93.042" y2="-0.333" xlink:href="#linear-gradient-12"/>
    <linearGradient id="linear-gradient-23" x1="230.224" y1="-0.52" x2="231.214" y2="-0.52" xlink:href="#linear-gradient-12"/>
    <linearGradient id="linear-gradient-24" x1="28.63" y1="34.25" x2="28.971" y2="36.21" xlink:href="#linear-gradient-12"/>
    <linearGradient id="linear-gradient-25" x1="0.36" y1="-0.399" x2="0.612" y2="1.019" xlink:href="#linear-gradient-11"/>
    <linearGradient id="linear-gradient-26" x1="92.045" y1="147.249" x2="93.153" y2="155.788" xlink:href="#linear-gradient-12"/>
    <linearGradient id="linear-gradient-27" x1="83.521" y1="-0.062" x2="84.034" y2="2.428" xlink:href="#linear-gradient-11"/>
    <linearGradient id="linear-gradient-28" x1="1.091" y1="-1.973" x2="0.013" y2="2.153" xlink:href="#linear-gradient-12"/>
    <linearGradient id="linear-gradient-29" x1="-0.017" y1="0.124" x2="1.312" y2="1.072" xlink:href="#linear-gradient-11"/>
    <linearGradient id="linear-gradient-30" x1="65.884" y1="0.617" x2="65.764" y2="-0.364" xlink:href="#linear-gradient-10"/>
    <linearGradient id="linear-gradient-31" x1="1277.216" y1="0.434" x2="1277.079" y2="2.304" gradientUnits="objectBoundingBox">
      <stop offset="0" stop-color="#a737d5"/>
      <stop offset="1" stop-color="#ef497a"/>
    </linearGradient>
    <linearGradient id="linear-gradient-32" x1="1283.303" y1="0.431" x2="1283.165" y2="2.31" xlink:href="#linear-gradient-31"/>
    <linearGradient id="linear-gradient-33" x1="0" y1="0.5" x2="1" y2="0.5" xlink:href="#linear-gradient-12"/>
    <linearGradient id="linear-gradient-34" x1="0.373" y1="1.369" x2="-0.335" y2="7.343" xlink:href="#linear-gradient-2"/>
    <linearGradient id="linear-gradient-35" x1="180.488" y1="-16.217" x2="181.53" y2="-16.217" xlink:href="#linear-gradient-10"/>
    <linearGradient id="linear-gradient-36" x1="99.088" y1="-0.782" x2="99.911" y2="-3.594" gradientUnits="objectBoundingBox">
      <stop offset="0" stop-color="#ff928e"/>
      <stop offset="0.26" stop-color="#ff9b97"/>
      <stop offset="0.32" stop-color="#ff9d99"/>
      <stop offset="1" stop-color="#feb3b1"/>
    </linearGradient>
    <linearGradient id="linear-gradient-37" x1="103.593" y1="-11.154" x2="104.561" y2="-11.154" xlink:href="#linear-gradient-10"/>
    <linearGradient id="linear-gradient-38" x1="64.949" y1="-1.385" x2="65.487" y2="-4.194" xlink:href="#linear-gradient-12"/>
    <linearGradient id="linear-gradient-39" x1="0.357" y1="0.615" x2="-0.52" y2="2.19" xlink:href="#linear-gradient-2"/>
    <linearGradient id="linear-gradient-40" x1="-0.474" y1="0.191" x2="1.997" y2="1.101" xlink:href="#linear-gradient-10"/>
    <linearGradient id="linear-gradient-41" x1="189.062" y1="-7.107" x2="188.871" y2="-9.132" xlink:href="#linear-gradient-12"/>
    <linearGradient id="linear-gradient-42" x1="136.306" y1="2.813" x2="136.4" y2="2.271" xlink:href="#linear-gradient-2"/>
    <linearGradient id="linear-gradient-43" x1="0" y1="0.5" x2="1" y2="0.5" xlink:href="#linear-gradient-12"/>
    <linearGradient id="linear-gradient-44" x1="82.786" y1="-4.365" x2="82.659" y2="-5.3" xlink:href="#linear-gradient-2"/>
    <linearGradient id="linear-gradient-45" x1="268.49" y1="-3.358" x2="268.153" y2="-4.358" xlink:href="#linear-gradient-12"/>
    <linearGradient id="linear-gradient-46" x1="714.357" y1="-72.973" x2="714.302" y2="-73.997" xlink:href="#linear-gradient-12"/>
    <linearGradient id="linear-gradient-47" x1="91.86" y1="-3.777" x2="93.102" y2="-2.957" xlink:href="#linear-gradient-12"/>
    <linearGradient id="linear-gradient-48" x1="329.158" y1="-14.638" x2="333.642" y2="-11.919" xlink:href="#linear-gradient-12"/>
    <linearGradient id="linear-gradient-49" x1="-0.047" y1="0.229" x2="3.772" y2="1.984" xlink:href="#linear-gradient-11"/>
  </defs>
  <g id="_20943756_Converted_-01" data-name="20943756 [Converted]-01" transform="translate(-0.354 -0.408)">
    <path id="Path_9267" data-name="Path 9267" d="M84.37,9.377c-14.245,12.259-9.493,32.941-19.4,35.42C53.767,47.6,45.776,21.6,30.12,22.027,12.765,22.5-5.745,55.194,2.286,70.659,7.514,80.728,22.1,79.842,23.933,88.65c1.728,8.3-15.071,12.718-14.62,21.084.539,9.987,23.9,16.3,29.517,17.71,27.788,6.978,35.748-1.961,68.591-.562,33.382,1.42,40.948,11.322,62.969,4.5,6.61-2.048,22.125-6.857,30.078-21.364,10.581-19.3,3.339-47.673-11.244-54.817-10.245-5.018-17.433-.54-26.979-5.933-13.19-7.452-4.841-22.9-17.718-36.8C130.886-2.252,99.622-3.752,84.37,9.377Z" transform="translate(0 0)" fill="url(#linear-gradient)"/>
    <path id="Path_9268" data-name="Path 9268" d="M118.173,921.623a19.276,19.276,0,0,0-10.539-7.389,13.669,13.669,0,0,1-8.3-6.007q-.291-.475-.634-.936c-3.435-4.653-9.063-6.323-12.571-3.733s-3.565,8.461-.13,13.112a13.589,13.589,0,0,0,2.345,2.469,13.739,13.739,0,0,1,5.008,8.788,20.159,20.159,0,0,0,3.831,9.2,18.839,18.839,0,0,0,11.9,7.669,13.416,13.416,0,0,1,4.617,1.589,6.431,6.431,0,0,0,7.052-.014c2.124-1.569,2.784-4.5,1.923-7.364a14.356,14.356,0,0,1-.547-5.009A19.267,19.267,0,0,0,118.173,921.623Z" transform="translate(-75.04 -814.38)" fill="#91b3fa"/>
    <path id="Path_9269" data-name="Path 9269" d="M160.158,956.49c2.728,2.735,5.367,5.557,7.976,8.406.652.711,1.294,1.434,1.941,2.154l.965,1.08L172,969.22c.634.728,1.278,1.447,1.905,2.182l1.879,2.206c1.234,1.486,2.48,2.963,3.689,4.472.6.753,1.223,1.5,1.811,2.262l1.777,2.29c2.338,3.076,4.6,6.212,6.7,9.458l-.139.091-1.664-2.368-.415-.593-.429-.582-.86-1.165-.858-1.165c-.285-.388-.582-.767-.874-1.151-.588-.764-1.171-1.532-1.765-2.292q-3.592-4.537-7.325-8.961c-1.262-1.462-2.505-2.934-3.774-4.388l-.949-1.092-.963-1.081c-.639-.724-1.276-1.447-1.922-2.164q-1.919-2.169-3.869-4.306T160.04,956.6Z" transform="translate(-144.185 -863.275)" fill="#dce5fe"/>
    <path id="Path_9270" data-name="Path 9270" d="M275.92,357.525c-3.678-8.9-9.912-15.728-16.928-19.463a27.326,27.326,0,0,1-13.232-15.709q-.343-1.068-.777-2.127c-4.425-10.709-14.573-16.679-22.667-13.335s-11.066,14.734-6.645,25.443a27.129,27.129,0,0,0,3.365,5.934,27.464,27.464,0,0,1,5.47,19.511,40.3,40.3,0,0,0,2.974,19.754c4.113,9.956,11.421,17.312,19.444,20.658a26.919,26.919,0,0,1,8.205,5.339c3.952,3.766,9.2,5.258,13.741,3.381,4.9-2.025,7.616-7.4,7.336-13.4a28.734,28.734,0,0,1,1.377-10.007C280.006,375.867,279.639,366.527,275.92,357.525Z" transform="translate(-192.568 -275.893)" fill="#bdd0fb"/>
    <path id="Path_9271" data-name="Path 9271" d="M378.178,420.82c3.98,6.641,7.745,13.4,11.439,20.206.924,1.7,1.82,3.415,2.723,5.126l1.353,2.568,1.331,2.579c.881,1.723,1.786,3.434,2.647,5.167l2.585,5.2c1.679,3.488,3.388,6.961,5,10.484.81,1.759,1.65,3.5,2.427,5.276l2.347,5.309c3.056,7.114,5.933,14.308,8.445,21.635l-.315.111-2.085-5.41-.523-1.353L415,496.376l-1.109-2.677-1.1-2.68c-.366-.894-.766-1.773-1.147-2.662-.777-1.771-1.535-3.547-2.32-5.312-3.19-7.04-6.472-14.039-9.9-20.967-1.74-3.452-3.45-6.918-5.214-10.358l-1.316-2.583-1.335-2.576c-.89-1.716-1.781-3.431-2.689-5.138q-2.68-5.145-5.436-10.246-2.732-5.115-5.54-10.192Z" transform="translate(-340.889 -379.602)" fill="#dce5fe"/>
    <path id="Path_9272" data-name="Path 9272" d="M1159.843,310.1c-13.809-5.033-20.482-24.688-15.261-31.845,4.451-6.1,16.114-1.146,19.539-7.183,4.061-7.144-10.02-18.063-5.956-26.226,3.479-6.989,16.151-3.712,19-10.581,2.667-6.431-7.35-11.916-5.533-20.522,1.561-7.4,11.471-15.221,21.969-13.1,9.374,1.9,16.361,11.146,15.083,17.808-1.69,8.808-16.987,8.725-18.249,16.835-1.383,8.908,16.235,14.4,15.178,22.963-1.319,10.684-30.136,13.444-29.775,19.983.282,5.112,17.966,4.7,19.487,11.46C1197.107,297.625,1176.829,316.292,1159.843,310.1Z" transform="translate(-1031.558 -180.482)" fill="#91b3fa"/>
    <path id="Path_9273" data-name="Path 9273" d="M1388.621,334.676l-7.26,21.85-3.613,10.926-1.8,5.465-1.772,5.474c-.6,1.82-1.174,3.651-1.756,5.478s-1.165,3.653-1.735,5.484l-1.713,5.49-1.67,5.5c-.572,1.831-1.081,3.678-1.63,5.515l-.811,2.76c-.277.918-.51,1.844-.776,2.768l-.777,2.768c-.257.923-.53,1.844-.76,2.774l-.718,2.785-.74,2.782-.243-.053c1.447-7.547,3.3-15.013,5.339-22.423l1.553-5.55,1.639-5.524c.535-1.844,1.115-3.676,1.688-5.51s1.139-3.668,1.734-5.494l1.782-5.479,1.83-5.463c.609-1.821,1.255-3.629,1.881-5.445s1.262-3.626,1.918-5.431q1.934-5.426,3.98-10.813c1.366-3.592,2.743-7.173,4.206-10.726Z" transform="translate(-1228.433 -301.743)" fill="#dce5fe"/>
    <path id="Path_9274" data-name="Path 9274" d="M1607.571,247.19c-2.322-4.337-.1-11.518-.071-11.59l.237.075c-.022.071-2.22,7.153.053,11.4Z" transform="translate(-1450.251 -212.362)" fill="#dce5fe"/>
    <path id="Path_9275" data-name="Path 9275" d="M1569.43,278.691c-4.174-4.918-3.76-12.1-3.755-12.171l.249.016c0,.072-.416,7.155,3.7,11.994Z" transform="translate(-1413.364 -240.28)" fill="#dce5fe"/>
    <path id="Path_9276" data-name="Path 9276" d="M1512.792,319.579c-6.354-3.622-7.679-11.191-7.692-11.268l.245-.041c.013.076,1.321,7.531,7.571,11.093Z" transform="translate(-1358.681 -277.978)" fill="#dce5fe"/>
    <path id="Path_9277" data-name="Path 9277" d="M1486.944,372.084c-6.485-2.809-10.088-9.168-10.124-9.232l.217-.121c.035.063,3.6,6.35,10.006,9.125Z" transform="translate(-1333.146 -327.151)" fill="#dce5fe"/>
    <path id="Path_9278" data-name="Path 9278" d="M1491.316,423.537c-5.173-1.915-8.474-6.88-8.506-6.93l.208-.137c.032.049,3.291,4.951,8.385,6.834Z" transform="translate(-1338.555 -375.675)" fill="#dce5fe"/>
    <rect id="Rectangle_731" data-name="Rectangle 731" width="0.248" height="4.663" transform="matrix(0.494, -0.869, 0.869, 0.494, 147.739, 48.221)" fill="#dce5fe"/>
    <rect id="Rectangle_732" data-name="Rectangle 732" width="0.248" height="2.916" transform="matrix(0.545, -0.839, 0.839, 0.545, 148.351, 51.741)" fill="#dce5fe"/>
    <rect id="Rectangle_733" data-name="Rectangle 733" width="0.248" height="2.554" transform="translate(147.787 54.821) rotate(-44.45)" fill="#dce5fe"/>
    <rect id="Rectangle_734" data-name="Rectangle 734" width="0.248" height="3.336" transform="translate(146.359 57.166) rotate(-38.63)" fill="#dce5fe"/>
    <rect id="Rectangle_735" data-name="Rectangle 735" width="0.248" height="5.445" transform="translate(144.742 58.452) rotate(-26.39)" fill="#dce5fe"/>
    <rect id="Rectangle_736" data-name="Rectangle 736" width="0.248" height="9.457" transform="translate(141.432 59.261) rotate(-25.97)" fill="#dce5fe"/>
    <rect id="Rectangle_737" data-name="Rectangle 737" width="0.248" height="12.911" transform="translate(137.901 60.731) rotate(-28.36)" fill="#dce5fe"/>
    <rect id="Rectangle_738" data-name="Rectangle 738" width="0.248" height="18.342" transform="matrix(0.894, -0.447, 0.447, 0.894, 134.422, 61.649)" fill="#dce5fe"/>
    <path id="Path_9279" data-name="Path 9279" d="M1362.856,654.779c-6.339-6.173-9.682-19.436-9.716-19.569l.242-.06c.033.133,3.359,13.329,9.648,19.452Z" transform="translate(-1221.472 -573.128)" fill="#dce5fe"/>
    <path id="Path_9280" data-name="Path 9280" d="M1334.5,683.707c-7.96-10.156-9.721-22.579-9.738-22.7l.247-.033c.016.123,1.766,12.481,9.687,22.583Z" transform="translate(-1195.846 -596.441)" fill="#dce5fe"/>
    <rect id="Rectangle_739" data-name="Rectangle 739" width="0.248" height="4.6" transform="matrix(0.865, -0.502, 0.502, 0.865, 135.471, 87.696)" fill="#dce5fe"/>
    <rect id="Rectangle_740" data-name="Rectangle 740" width="0.248" height="4.78" transform="translate(134.155 91.376) rotate(-27.68)" fill="#dce5fe"/>
    <rect id="Rectangle_741" data-name="Rectangle 741" width="0.248" height="6.548" transform="translate(132.177 94.137) rotate(-30.63)" fill="#dce5fe"/>
    <rect id="Rectangle_742" data-name="Rectangle 742" width="0.248" height="9.246" transform="translate(129.194 96.085) rotate(-35.65)" fill="#dce5fe"/>
    <path id="Path_9281" data-name="Path 9281" d="M1295.772,995.75a93.067,93.067,0,0,1-8.2-10.535l.209-.135a92.686,92.686,0,0,0,8.177,10.5Z" transform="translate(-1162.266 -889.09)" fill="#dce5fe"/>
    <path id="Path_9282" data-name="Path 9282" d="M1252.225,1011.947c-6.644-5-10.735-13.4-10.775-13.479l.223-.108c.041.083,4.106,8.426,10.7,13.388Z" transform="translate(-1120.623 -901.081)" fill="#dce5fe"/>
    <path id="Path_9283" data-name="Path 9283" d="M1208.916,1022.375c-9.535-6.669-13.8-18.055-13.846-18.169l.233-.085c.042.114,4.286,11.428,13.756,18.055Z" transform="translate(-1078.745 -906.282)" fill="#dce5fe"/>
    <path id="Path_9284" data-name="Path 9284" d="M1188.723,1081.519a28.192,28.192,0,0,1-15.143-16.926l.241-.063a27.96,27.96,0,0,0,15.007,16.763Z" transform="translate(-1059.341 -960.828)" fill="#dce5fe"/>
    <path id="Path_9285" data-name="Path 9285" d="M1185.938,1147.556c-9.238-3.293-15.386-16.17-15.448-16.3l.225-.106c.06.129,6.166,12.91,15.3,16.171l.181.063-.081.235Z" transform="translate(-1056.551 -1020.981)" fill="#dce5fe"/>
    <path id="Path_9286" data-name="Path 9286" d="M1340.487,732.1c-4.368-8.176-1.359-20.337,3.932-22.247,4.591-1.656,9.288,4.978,12.793,2.951,4.21-2.435-.411-13.252,4.09-16.371,4.317-2.991,11.681,4.8,16.058,1.911,4.676-3.088-1.222-13.633,3.97-18.957,4.331-4.441,14.943-3.781,21.181,2.092,5.076,4.779,7.706,13.435,4.465,17.674-4.42,5.786-16.725-.652-20.891,5.086-3.844,5.3,4.174,14.172.357,18.615-4.107,4.786-16.481-1.894-19.272,2.278-2.452,3.665,6.018,10.442,3.868,14.318C1368.2,744.58,1346.99,744.263,1340.487,732.1Z" transform="translate(-1208.152 -610.465)" fill="#91b3fa"/>
    <path id="Path_9287" data-name="Path 9287" d="M1373.047,755.605a26.829,26.829,0,0,1-9.44-2.875,16.2,16.2,0,0,1-6.87-6.568c-2.632-4.921-2.233-11.23-.671-15.3.948-2.469,2.311-4.182,3.739-4.7a3.117,3.117,0,0,1,1.456-.148,12.739,12.739,0,0,1,4.129,1.709,13.347,13.347,0,0,0,4.557,1.834,4.6,4.6,0,0,0,2.905-.565c2.883-1.667,2.808-5.479,2.735-9.164-.059-3.036-.121-6.177,1.465-7.28a2.814,2.814,0,0,1,2.028-.377,19.069,19.069,0,0,1,4.5,1.472,21.3,21.3,0,0,0,5.357,1.7,6,6,0,0,0,4.15-.862c3.036-2.005,2.777-5.928,2.524-9.722-.234-3.546-.477-7.212,1.706-9.451,1.821-1.868,5.329-2.744,9.155-2.29a17.541,17.541,0,0,1,9.791,4.429,18.4,18.4,0,0,1,4.906,8.294c.816,3.031.594,5.674-.612,7.252-1.712,2.241-5.368,2.092-9.239,1.935-4.472-.182-9.1-.371-11.676,3.182-2.415,3.327-1.146,7.492-.025,11.163.911,2.992,1.773,5.818.462,7.346-1.293,1.507-4.277,1.375-7.026,1.048-.711-.084-1.442-.187-2.15-.291s-1.421-.194-2.115-.282c-2.2-.261-6.291-.748-8.1,1.95-1.793,2.68.124,5.958,1.816,8.85,1.221,2.089,2.606,4.456,1.983,5.581-.417.751-1.792,1.45-3.677,1.87A23.594,23.594,0,0,1,1373.047,755.605Z" transform="translate(-1222.996 -625.275)" fill="#bdd0fb"/>
    <path id="Path_9288" data-name="Path 9288" d="M1492.7,787.06c-3.528,4.077-7.171,8.05-10.862,11.977-1.839,1.969-3.713,3.905-5.579,5.849-.937.971-1.886,1.925-2.829,2.888s-1.885,1.926-2.844,2.873l-2.869,2.843c-.964.943-1.923,1.89-2.894,2.824l-.727.7-.733.7-1.465,1.393-1.469,1.391-1.487,1.37a156.565,156.565,0,0,1-12.328,10.478l-.067-.083c4.049-3.554,7.91-7.3,11.762-11.058l1.444-1.4,1.435-1.42,1.438-1.416.718-.709.713-.714c.947-.955,1.907-1.9,2.863-2.847l2.848-2.861,11.4-11.447q5.7-5.727,11.454-11.4Z" transform="translate(-1305.814 -710.229)" fill="#dce5fe"/>
    <circle id="Ellipse_1221" data-name="Ellipse 1221" cx="46.732" cy="46.732" r="46.732" transform="translate(55.663 41.208)" fill="url(#linear-gradient-2)"/>
    <path id="Path_9289" data-name="Path 9289" d="M606.026,826.634h-.01a.187.187,0,0,1-.178-.194,43.426,43.426,0,0,1,.63-5.443.187.187,0,1,1,.369.067,43.037,43.037,0,0,0-.624,5.4A.188.188,0,0,1,606.026,826.634Z" transform="translate(-546.71 -740.796)" fill="#fff" opacity="0.73"/>
    <path id="Path_9290" data-name="Path 9290" d="M652.84,479.884a.178.178,0,0,1-.084-.02.187.187,0,0,1-.082-.251,43.4,43.4,0,0,1,46.519-23.126.188.188,0,0,1-.068.369,43.029,43.029,0,0,0-46.116,22.923A.188.188,0,0,1,652.84,479.884Z" transform="translate(-588.981 -411.17)" fill="#fff" opacity="0.73"/>
    <circle id="Ellipse_1222" data-name="Ellipse 1222" cx="39.553" cy="39.553" r="39.553" transform="translate(47.478 88.958) rotate(-45)" fill="#fff" opacity="0.73"/>
    <path id="Path_9291" data-name="Path 9291" d="M961.249,652.178c0,6.7-5.429,13.928-12.127,13.928S937,658.875,937,652.178s5.429-11.448,12.126-11.448S961.249,645.481,961.249,652.178Z" transform="translate(-845.726 -578.166)" fill="url(#linear-gradient-3)"/>
    <path id="Path_9292" data-name="Path 9292" d="M828.792,963.9H858.4a7.164,7.164,0,0,0,6.824-4.982l1.593-4.979a7.159,7.159,0,0,0-4.325-8.906c-12.047-4.405-24.5-3.84-37.266.406a7.135,7.135,0,0,0-4.572,8.65l1.226,4.521A7.167,7.167,0,0,0,828.792,963.9Z" transform="translate(-740.445 -850.178)" fill="url(#linear-gradient-4)"/>
    <path id="Path_9293" data-name="Path 9293" d="M666.753,143.222l-5.392-4.476a1.947,1.947,0,0,0-1.771-.375l-6.744,1.905a1.941,1.941,0,0,1-2.336-2.592l2.59-6.512a1.941,1.941,0,0,0-.194-1.8l-3.9-5.824a1.941,1.941,0,0,1,1.747-3.023l6.989.45a1.941,1.941,0,0,0,1.65-.738l4.336-5.5a1.941,1.941,0,0,1,3.42.721l1.733,6.795a1.941,1.941,0,0,0,1.212,1.342l6.576,2.427a1.941,1.941,0,0,1,.367,3.47l-5.921,3.746a1.941,1.941,0,0,0-.9,1.569l-.273,7a1.941,1.941,0,0,1-3.189,1.415Z" transform="translate(-585.39 -102.547)" fill="#fff" opacity="0.51"/>
    <path id="Path_9294" data-name="Path 9294" d="M661.261,132.775a.764.764,0,0,1,.366-.061l6.994.451a3.121,3.121,0,0,0,2.652-1.184l4.337-5.5a.776.776,0,0,1,.291-.231.791.791,0,0,1,.661.017.741.741,0,0,1,.4.5l1.733,6.795a3.119,3.119,0,0,0,1.941,2.158l6.576,2.427a.771.771,0,0,1,.146,1.374l-5.921,3.746a3.12,3.12,0,0,0-1.451,2.509l-.273,7a.769.769,0,0,1-1.262.562l-5.393-4.475a3.12,3.12,0,0,0-2.841-.6l-6.744,1.9a.77.77,0,0,1-.925-1.026l2.59-6.511a3.123,3.123,0,0,0-.306-2.889l-3.9-5.824a.741.741,0,0,1-.1-.633A.8.8,0,0,1,661.261,132.775Z" transform="translate(-596.338 -113.564)" fill="url(#linear-gradient-5)"/>
    <path id="Path_9295" data-name="Path 9295" d="M841.69,222.017a.177.177,0,0,1,.2.043,4.131,4.131,0,0,0,1.636,1.107l2.5.922a.177.177,0,1,1-.122.331l-2.5-.922a4.484,4.484,0,0,1-1.775-1.2.177.177,0,0,1,.013-.249A.174.174,0,0,1,841.69,222.017Z" transform="translate(-759.573 -200.084)" fill="#fff" opacity="0.73"/>
    <path id="Path_9296" data-name="Path 9296" d="M743.087,184.042a.177.177,0,0,1,.211.27l-.582.737a4.465,4.465,0,0,1-3.8,1.694.176.176,0,1,1,.022-.351,4.122,4.122,0,0,0,3.5-1.563l.582-.737A.168.168,0,0,1,743.087,184.042Z" transform="translate(-666.721 -165.795)" fill="#fff" opacity="0.73"/>
    <path id="Path_9297" data-name="Path 9297" d="M688.439,206.169a1.419,1.419,0,0,1,.4-.112.176.176,0,1,1,.044.349,1.074,1.074,0,0,0-.845.629,1.06,1.06,0,0,0,.086,1.051l2.018,3.019a4.473,4.473,0,0,1,.439,4.14l-1.342,3.374a1.085,1.085,0,0,0,1.3,1.445l3.495-.987a4.465,4.465,0,0,1,4.077.862l2.792,2.321a1.085,1.085,0,0,0,1.777-.792l.141-3.629a4.472,4.472,0,0,1,2.079-3.606l3.069-1.941a1.08,1.08,0,0,0,.411-.468.177.177,0,1,1,.321.148,1.419,1.419,0,0,1-.544.621l-3.069,1.941a4.121,4.121,0,0,0-1.915,3.322l-.141,3.628a1.438,1.438,0,0,1-2.355,1.05l-2.795-2.319a4.117,4.117,0,0,0-3.752-.8l-3.495.987a1.437,1.437,0,0,1-1.726-1.914l1.338-3.375a4.117,4.117,0,0,0-.4-3.813l-2.014-3.019a1.441,1.441,0,0,1,.606-2.114Z" transform="translate(-620.527 -185.685)" fill="#fff" opacity="0.73"/>
    <path id="Path_9298" data-name="Path 9298" d="M443.685,431.015l-4.123-3.421a1.485,1.485,0,0,0-1.359-.291l-5.155,1.456a1.488,1.488,0,0,1-1.787-1.981l1.985-4.971a1.489,1.489,0,0,0-.146-1.376l-2.979-4.454a1.487,1.487,0,0,1,1.333-2.311l5.347.345a1.489,1.489,0,0,0,1.262-.564l3.315-4.209a1.488,1.488,0,0,1,2.61.552l1.329,5.189a1.491,1.491,0,0,0,.927,1.028l5.027,1.852a1.487,1.487,0,0,1,.281,2.653l-4.528,2.864a1.486,1.486,0,0,0-.691,1.2l-.209,5.354a1.487,1.487,0,0,1-2.439,1.086Z" transform="translate(-387.823 -368.632)" fill="#fff" opacity="0.51"/>
    <path id="Path_9299" data-name="Path 9299" d="M439.413,422.93a.582.582,0,0,1,.28-.047l5.347.345a2.383,2.383,0,0,0,2.028-.9l3.315-4.209a.593.593,0,0,1,.222-.177.6.6,0,0,1,.5.014.563.563,0,0,1,.307.381l1.324,5.191a2.385,2.385,0,0,0,1.487,1.65l5.027,1.85a.589.589,0,0,1,.112,1.05l-4.528,2.865a2.383,2.383,0,0,0-1.109,1.924l-.213,5.354a.588.588,0,0,1-.964.43l-4.124-3.422a2.384,2.384,0,0,0-2.172-.46l-5.155,1.456a.589.589,0,0,1-.708-.784l1.98-4.979a2.386,2.386,0,0,0-.234-2.208l-2.978-4.454a.563.563,0,0,1-.08-.485A.607.607,0,0,1,439.413,422.93Z" transform="translate(-396.12 -376.956)" fill="url(#linear-gradient-6)"/>
    <path id="Path_9300" data-name="Path 9300" d="M577.31,491.151a.135.135,0,0,1,.155.033,3.171,3.171,0,0,0,1.25.846l1.913.7a.135.135,0,0,1-.1.252l-1.913-.7a3.437,3.437,0,0,1-1.359-.918.135.135,0,0,1,.01-.194A.139.139,0,0,1,577.31,491.151Z" transform="translate(-520.872 -443.096)" fill="#fff" opacity="0.73"/>
    <path id="Path_9301" data-name="Path 9301" d="M501.945,462.11a.135.135,0,0,1,.161.207l-.444.564a3.422,3.422,0,0,1-2.905,1.3.135.135,0,1,1,.017-.269,3.152,3.152,0,0,0,2.676-1.194l.445-.564A.133.133,0,0,1,501.945,462.11Z" transform="translate(-449.903 -416.873)" fill="#fff" opacity="0.73"/>
    <path id="Path_9302" data-name="Path 9302" d="M460.237,479.036a1.1,1.1,0,0,1,.308-.085.135.135,0,0,1,.033.268A.83.83,0,0,0,460,480.5l1.543,2.307a3.418,3.418,0,0,1,.335,3.165l-1.024,2.579a.83.83,0,0,0,1,1.1l2.671-.754a3.42,3.42,0,0,1,3.113.659l2.136,1.773a.83.83,0,0,0,1.359-.607l.108-2.774a3.418,3.418,0,0,1,1.589-2.757l2.346-1.484a.827.827,0,0,0,.314-.357.134.134,0,0,1,.178-.068.136.136,0,0,1,.068.179,1.1,1.1,0,0,1-.415.475l-2.346,1.484a3.151,3.151,0,0,0-1.464,2.539l-.108,2.774a1.1,1.1,0,0,1-1.8.8l-2.136-1.772a3.152,3.152,0,0,0-2.868-.608l-2.672.759a1.1,1.1,0,0,1-1.319-1.468l1.026-2.58a3.148,3.148,0,0,0-.309-2.912l-1.543-2.308a1.1,1.1,0,0,1,.464-1.616Z" transform="translate(-414.658 -432.089)" fill="#fff" opacity="0.73"/>
    <path id="Path_9303" data-name="Path 9303" d="M413.891,729.325l-2.579-2.141a.932.932,0,0,0-.847-.18l-3.227.911a.931.931,0,0,1-1.118-1.24l1.236-3.119a.935.935,0,0,0-.091-.862l-1.864-2.787a.931.931,0,0,1,.833-1.446l3.355.22a.931.931,0,0,0,.791-.353l2.07-2.634a.931.931,0,0,1,1.634.346l.828,3.246a.932.932,0,0,0,.582.643l3.146,1.159a.931.931,0,0,1,.171,1.665l-2.833,1.792a.929.929,0,0,0-.433.75l-.131,3.35a.932.932,0,0,1-1.521.68Z" transform="translate(-365.586 -645.533)" fill="#fff" opacity="0.51"/>
    <path id="Path_9304" data-name="Path 9304" d="M411.28,724.276a.36.36,0,0,1,.175-.03l3.346.216a1.5,1.5,0,0,0,1.269-.567l2.072-2.633a.361.361,0,0,1,.454-.1.35.35,0,0,1,.194.239l.829,3.249a1.494,1.494,0,0,0,.931,1.032l3.146,1.155a.368.368,0,0,1,.069.657l-2.833,1.792a1.494,1.494,0,0,0-.694,1.2l-.13,3.351a.369.369,0,0,1-.607.277l-2.576-2.145a1.494,1.494,0,0,0-1.359-.291l-3.227.911a.369.369,0,0,1-.443-.491l1.24-3.115a1.493,1.493,0,0,0-.147-1.382l-1.864-2.787a.354.354,0,0,1-.049-.3A.379.379,0,0,1,411.28,724.276Z" transform="translate(-370.841 -650.752)" fill="url(#linear-gradient-7)"/>
    <path id="Path_9305" data-name="Path 9305" d="M497.538,766.981a.085.085,0,0,1,.1.02,1.977,1.977,0,0,0,.782.53l1.2.441a.085.085,0,0,1,.05.109.084.084,0,0,1-.109.049l-1.2-.441a2.154,2.154,0,0,1-.849-.575.084.084,0,0,1,.007-.119A.109.109,0,0,1,497.538,766.981Z" transform="translate(-448.878 -692.156)" fill="#fff" opacity="0.73"/>
    <path id="Path_9306" data-name="Path 9306" d="M450.477,748.816a.087.087,0,0,1,.086.011.083.083,0,0,1,.014.118l-.278.353a2.135,2.135,0,0,1-1.818.811.084.084,0,0,1,.011-.168,1.971,1.971,0,0,0,1.675-.747l.278-.352A.08.08,0,0,1,450.477,748.816Z" transform="translate(-404.563 -675.754)" fill="#fff" opacity="0.73"/>
    <path id="Path_9307" data-name="Path 9307" d="M424.258,759.4a.649.649,0,0,1,.194-.053.084.084,0,1,1,.02.167.515.515,0,0,0-.4.3.508.508,0,0,0,.042.5l.966,1.444a2.14,2.14,0,0,1,.21,1.98l-.639,1.614a.519.519,0,0,0,.624.691l1.672-.472a2.135,2.135,0,0,1,1.948.413l1.337,1.109a.519.519,0,0,0,.85-.38l.068-1.736a2.136,2.136,0,0,1,.994-1.726l1.469-.928a.521.521,0,0,0,.194-.224.085.085,0,1,1,.154.069.688.688,0,0,1-.26.3l-1.469.929a1.97,1.97,0,0,0-.916,1.589l-.064,1.737a.688.688,0,0,1-1.127.5l-1.339-1.109a1.972,1.972,0,0,0-1.795-.38l-1.672.473a.688.688,0,0,1-.826-.916l.643-1.614a1.971,1.971,0,0,0-.194-1.825l-.966-1.443a.689.689,0,0,1,.291-1.011Z" transform="translate(-382.392 -685.263)" fill="#fff" opacity="0.73"/>
    <path id="Path_9308" data-name="Path 9308" d="M1066.4,169.673l.421-5.339a1.489,1.489,0,0,1,.739-1.171l4.639-2.681a1.487,1.487,0,0,0-.175-2.662l-4.951-2.051a1.486,1.486,0,0,1-.885-1.068l-1.116-5.242a1.487,1.487,0,0,0-2.585-.656l-3.481,4.077a1.486,1.486,0,0,1-1.285.513l-5.329-.558a1.488,1.488,0,0,0-1.417,2.256l2.8,4.568a1.488,1.488,0,0,1,.09,1.381l-2.176,4.9a1.487,1.487,0,0,0,1.706,2.051l5.21-1.249a1.486,1.486,0,0,1,1.342.341l3.98,3.583a1.487,1.487,0,0,0,2.475-.989Z" transform="translate(-948.44 -133.52)" fill="#fff" opacity="0.51"/>
    <path id="Path_9309" data-name="Path 9309" d="M1071.675,157.616a.582.582,0,0,0-.229.167l-3.48,4.077a2.382,2.382,0,0,1-2.063.823l-5.328-.557a.583.583,0,0,0-.281.036.6.6,0,0,0-.342.371.56.56,0,0,0,.06.485l2.8,4.569a2.382,2.382,0,0,1,.146,2.215l-2.177,4.9a.589.589,0,0,0,.679.812l5.21-1.249a2.384,2.384,0,0,1,2.153.547l3.98,3.583a.589.589,0,0,0,.981-.388l.421-5.339a2.383,2.383,0,0,1,1.184-1.877l4.636-2.693a.589.589,0,0,0-.069-1.054L1075,164.988a2.383,2.383,0,0,1-1.42-1.707l-1.116-5.242a.566.566,0,0,0-.291-.394A.6.6,0,0,0,1071.675,157.616Z" transform="translate(-956.716 -141.91)" fill="url(#linear-gradient-8)"/>
    <path id="Path_9310" data-name="Path 9310" d="M1090.937,269.907a.135.135,0,0,0-.084.134,3.152,3.152,0,0,1-.265,1.486l-.828,1.863a.134.134,0,0,0,.068.178.136.136,0,0,0,.179-.068l.828-1.863a3.426,3.426,0,0,0,.291-1.613.135.135,0,0,0-.143-.126A.152.152,0,0,0,1090.937,269.907Z" transform="translate(-983.647 -243.33)" fill="#fff" opacity="0.73"/>
    <path id="Path_9311" data-name="Path 9311" d="M1111.936,207.282a.135.135,0,0,0,.036.259l.714.075a3.42,3.42,0,0,0,2.955-1.179.135.135,0,1,0-.2-.175,3.153,3.153,0,0,1-2.718,1.086l-.713-.075A.141.141,0,0,0,1111.936,207.282Z" transform="translate(-1003.605 -185.822)" fill="#fff" opacity="0.73"/>
    <path id="Path_9312" data-name="Path 9312" d="M1100.07,181.114a1.09,1.09,0,0,0-.277.161.135.135,0,1,0,.169.211.83.83,0,0,1,1.326.48l.582,2.718a3.417,3.417,0,0,0,2.038,2.446l2.566,1.063a.83.83,0,0,1,.1,1.485l-2.4,1.389a3.422,3.422,0,0,0-1.7,2.692l-.218,2.767a.83.83,0,0,1-1.381.551l-2.064-1.857a3.419,3.419,0,0,0-3.085-.782l-2.7.647a.834.834,0,0,1-.476-.024.136.136,0,0,0-.1.253,1.107,1.107,0,0,0,.631.033l2.7-.647a3.145,3.145,0,0,1,2.841.721l2.064,1.857a1.1,1.1,0,0,0,1.831-.731l.218-2.767a3.152,3.152,0,0,1,1.565-2.48l2.4-1.389a1.1,1.1,0,0,0-.129-1.967l-2.564-1.063a3.151,3.151,0,0,1-1.877-2.256l-.582-2.718a1.087,1.087,0,0,0-.7-.806A1.1,1.1,0,0,0,1100.07,181.114Z" transform="translate(-986.007 -163.095)" fill="#fff" opacity="0.73"/>
    <path id="Path_9313" data-name="Path 9313" d="M1333.208,342.14l.264-3.342a.933.933,0,0,1,.462-.733l2.9-1.677a.931.931,0,0,0-.109-1.666l-3.1-1.278a.932.932,0,0,1-.554-.666l-.7-3.279a.931.931,0,0,0-1.618-.412l-2.178,2.549a.931.931,0,0,1-.8.321l-3.335-.353a.93.93,0,0,0-.89,1.411l1.747,2.859a.932.932,0,0,1,.056.865L1324,339.8a.931.931,0,0,0,1.068,1.283l3.26-.782a.933.933,0,0,1,.84.214l2.493,2.242a.931.931,0,0,0,1.552-.619Z" transform="translate(-1194.631 -296.48)" fill="#fff" opacity="0.51"/>
    <path id="Path_9314" data-name="Path 9314" d="M1336.591,334.532a.368.368,0,0,0-.143.1l-2.177,2.549a1.5,1.5,0,0,1-1.291.514l-3.334-.348a.364.364,0,0,0-.176.022.377.377,0,0,0-.215.232.351.351,0,0,0,.038.3l1.747,2.859a1.493,1.493,0,0,1,.09,1.386l-1.359,3.064a.369.369,0,0,0,.422.509l3.26-.782a1.494,1.494,0,0,1,1.347.342l2.492,2.242a.369.369,0,0,0,.615-.245l.263-3.342a1.494,1.494,0,0,1,.742-1.176l2.9-1.677a.369.369,0,0,0-.043-.66l-3.1-1.283a1.49,1.49,0,0,1-.888-1.068l-.7-3.279a.352.352,0,0,0-.182-.247A.379.379,0,0,0,1336.591,334.532Z" transform="translate(-1199.888 -301.668)" fill="url(#linear-gradient-9)"/>
    <path id="Path_9315" data-name="Path 9315" d="M1348.579,404.8a.085.085,0,0,0-.053.083,1.962,1.962,0,0,1-.166.93l-.518,1.165a.084.084,0,0,0,.154.069l.518-1.165a2.147,2.147,0,0,0,.181-1.01.084.084,0,0,0-.09-.079.056.056,0,0,0-.025.006Z" transform="translate(-1216.681 -365.135)" fill="#fff" opacity="0.73"/>
    <path id="Path_9316" data-name="Path 9316" d="M1361.735,365.72a.088.088,0,0,0-.053.07.085.085,0,0,0,.076.1l.447.047a2.135,2.135,0,0,0,1.844-.739.084.084,0,0,0-.128-.11,1.972,1.972,0,0,1-1.7.679l-.447-.047A.076.076,0,0,0,1361.735,365.72Z" transform="translate(-1229.184 -329.254)" fill="#fff" opacity="0.73"/>
    <path id="Path_9317" data-name="Path 9317" d="M1354.3,349.173a.679.679,0,0,0-.173.1.085.085,0,1,0,.106.132.512.512,0,0,1,.5-.081.506.506,0,0,1,.332.381l.362,1.7a2.136,2.136,0,0,0,1.274,1.531l1.606.666a.519.519,0,0,1,.06.929l-1.5.869a2.136,2.136,0,0,0-1.068,1.684l-.132,1.734a.518.518,0,0,1-.864.346l-1.292-1.165a2.135,2.135,0,0,0-1.93-.49l-1.69.406a.514.514,0,0,1-.3-.016.084.084,0,0,0-.108.05.082.082,0,0,0,.05.108.68.68,0,0,0,.394.021l1.689-.406a1.971,1.971,0,0,1,1.778.451l1.291,1.165a.688.688,0,0,0,1.146-.457l.136-1.732a1.969,1.969,0,0,1,.979-1.553l1.5-.874a.687.687,0,0,0-.081-1.231l-1.6-.665a1.97,1.97,0,0,1-1.174-1.41l-.362-1.7a.69.69,0,0,0-.927-.5Z" transform="translate(-1218.161 -314.86)" fill="#fff" opacity="0.73"/>
    <path id="Path_9318" data-name="Path 9318" d="M1423.412,472.492c-5.679,2.033-11.186,7.124-10.419,13.623.652,5.526,6.989,7.157,10.841,7.739a4.449,4.449,0,0,1,2.744,1.545c1.666,1.992,5.235,5.312,9.152,3.1a.315.315,0,0,0-.17-.582,4.769,4.769,0,0,1-3.525-1.087,2.672,2.672,0,0,1,.9-4.368c3.35-1.364,9.672-5.075,8.854-13.484C1440.682,467.605,1423.412,472.492,1423.412,472.492Z" transform="translate(-1275.45 -425.316)" fill="url(#linear-gradient-10)"/>
    <path id="Path_9319" data-name="Path 9319" d="M1503.161,545.463s.279-3.8,4.07-3.174c3.592.6,2.441,5.509-2.621,8.634a1.983,1.983,0,0,1-1.821.137c-2.221-.945-7.395-3.65-4.541-7.405C1500.093,541.227,1503.161,545.463,1503.161,545.463Z" transform="translate(-1351.738 -489.217)" fill="#fff"/>
    <path id="Path_9320" data-name="Path 9320" d="M1432.617,493.33a.375.375,0,0,1-.344-.521c1.165-2.743,4.022-6.384,11.018-8.159a.375.375,0,1,1,.184.726c-3.7.938-8.522,3.04-10.513,7.726a.377.377,0,0,1-.346.228Z" transform="translate(-1292.896 -437.224)" fill="#fff"/>
    <path id="Path_9321" data-name="Path 9321" d="M1423.608,603.084a.375.375,0,0,1-.371-.32,8.569,8.569,0,0,1,0-1.844.375.375,0,0,1,.746.068,7.938,7.938,0,0,0,0,1.665.377.377,0,0,1-.317.425Z" transform="translate(-1284.719 -541.912)" fill="#fff"/>
    <path id="Path_9322" data-name="Path 9322" d="M559.8,1342.49s-.214,1.145-.323,2.278a.782.782,0,0,0,.74.855c1.511.077,4.743.23,5.9.194a.254.254,0,0,0,.227-.347h0a.574.574,0,0,0-.291-.31l-5.317-2.505Z" transform="translate(-504.846 -1211.806)" fill="url(#linear-gradient-11)"/>
    <path id="Path_9323" data-name="Path 9323" d="M561.2,1333.679l.149,1.374a1.7,1.7,0,0,0,1.575-.04l-.374-1.533Z" transform="translate(-506.405 -1203.671)" fill="url(#linear-gradient-12)"/>
    <path id="Path_9324" data-name="Path 9324" d="M525.357,1069.567c-.074.358-.547,17.87,1.249,25.737a.264.264,0,0,1-.159.308,4.645,4.645,0,0,1-1.527.291.459.459,0,0,1-.452-.334,90.08,90.08,0,0,1-3.248-19.69c-.281-9.743,0-.331,0-.331l.277-6.018Z" transform="translate(-470.193 -965.342)" fill="url(#linear-gradient-13)"/>
    <path id="Path_9325" data-name="Path 9325" d="M493.3,1348.05a8.281,8.281,0,0,0-.654,2.11.477.477,0,0,0,.414.576c.5.054,1.262.124,1.881.126a.476.476,0,0,0,.477-.526,4.015,4.015,0,0,0-.916-2.209Z" transform="translate(-444.497 -1216.827)" fill="url(#linear-gradient-14)"/>
    <path id="Path_9326" data-name="Path 9326" d="M496.75,1329.218l.36,2.077a1.34,1.34,0,0,0,1.119.087l-.16-2.233Z" transform="translate(-448.211 -1199.761)" fill="url(#linear-gradient-15)"/>
    <path id="Path_9327" data-name="Path 9327" d="M482.339,1066.386c-1.619,9.222.115,22.843.717,25.511a.416.416,0,0,0,.332.318,2.793,2.793,0,0,0,1.2-.036.383.383,0,0,0,.278-.349c.1-2.151.079-15.362,1.553-20.569a1.188,1.188,0,0,1,.464-.65l2.788-1.941.243-3.18Z" transform="translate(-434.591 -961.695)" fill="url(#linear-gradient-16)"/>
    <path id="Path_9328" data-name="Path 9328" d="M493.822,888.709a43.172,43.172,0,0,0-9.664,1.112,69.119,69.119,0,0,0-.4,17.181,14.358,14.358,0,0,0,7.566-.5c.622-3.331,3.466-12.693,3.466-12.693a15.116,15.116,0,0,0,5.63-1.727A9.846,9.846,0,0,1,498.512,888,15.367,15.367,0,0,1,493.822,888.709Z" transform="translate(-436.15 -801.433)" fill="url(#linear-gradient-17)"/>
    <path id="Path_9329" data-name="Path 9329" d="M648.052,823.7a.88.88,0,0,0-1.019-.3c-.7,2.846-4.265,5.125-7.913,6.221a9.824,9.824,0,0,0,1.905,4.086A14.723,14.723,0,0,0,648.052,823.7Z" transform="translate(-576.761 -743.056)" fill="url(#linear-gradient-18)"/>
    <path id="Path_9330" data-name="Path 9330" d="M721.65,782.994c.047.15-.5.373-.818-.244a5.9,5.9,0,0,1,0-1.792,23.427,23.427,0,0,1,2.776-2.848.431.431,0,0,1,.049.6l-.888.909a4.235,4.235,0,0,1,.5,1.02,1.229,1.229,0,0,1-.132.906,10.8,10.8,0,0,1-.573.918A1.219,1.219,0,0,1,721.65,782.994Z" transform="translate(-650.469 -702.21)" fill="url(#linear-gradient-19)"/>
    <path id="Path_9331" data-name="Path 9331" d="M727.6,799.73l-.808.673-.258.674.708.8a9.2,9.2,0,0,1,.434-1.629C727.853,799.958,727.762,799.817,727.6,799.73Z" transform="translate(-655.686 -721.732)" fill="url(#linear-gradient-20)"/>
    <path id="Path_9332" data-name="Path 9332" d="M446.012,911.175l-1.718-4.465s-4.314,2.871-5.053,6.557a10.131,10.131,0,0,1,3.717,1.035C443.288,912.562,446.012,911.175,446.012,911.175Z" transform="translate(-396.283 -818.327)" fill="url(#linear-gradient-21)"/>
    <path id="Path_9333" data-name="Path 9333" d="M448.687,976.43s-4.839,2.673-6.441.336a1.823,1.823,0,0,1-.32-1.421,10.073,10.073,0,0,0-3.717-1.035,5.1,5.1,0,0,0,.52,3.5c2.795,5.23,10.581-.187,10.581-.187Z" transform="translate(-395.255 -879.365)" fill="url(#linear-gradient-22)"/>
    <path id="Path_9334" data-name="Path 9334" d="M529.276,856.46l-1.5,4.209a.151.151,0,0,0,.068.183,3.433,3.433,0,0,0,3.562-.2.718.718,0,0,0,.334-.509l.508-3.65Z" transform="translate(-476.217 -772.955)" fill="url(#linear-gradient-23)"/>
    <path id="Path_9335" data-name="Path 9335" d="M541.9,812.39s1.194,3.325.977,4.542-2.2,1.11-3.928.1l-1.181-3.27C538.53,812.44,540.292,812.046,541.9,812.39Z" transform="translate(-485.249 -733.056)" fill="url(#linear-gradient-24)"/>
    <path id="Path_9336" data-name="Path 9336" d="M520.538,783.875c-.971.116-1.025.946-2.567,1.588-.952.4-1.245.211-1.66.636a2.632,2.632,0,0,0-.3,2.858c.815,1.553,3.034,2.442,3.128,2.172.025-.073.54-.954-.013-1.511a.5.5,0,0,1-.088-.548h0a.492.492,0,0,0-.022-.428,1.181,1.181,0,0,1-.137-.954c.255-.545,1.573.1,2.868-.636.073-.041,1.252-.723,1.208-1.588C522.908,784.58,521.6,783.745,520.538,783.875Z" transform="translate(-465.345 -707.404)" fill="url(#linear-gradient-25)"/>
    <path id="Path_9337" data-name="Path 9337" d="M541.324,840.635s-1.142-.231-1.232.428,1.019.965,1.572.724Z" transform="translate(-487.341 -758.631)" fill="url(#linear-gradient-26)"/>
    <path id="Path_9338" data-name="Path 9338" d="M536.907,946.955l2.635-9.2a.269.269,0,0,1,.227-.194c.478-.055,1.861-.213,3.459-.347a39.9,39.9,0,0,1,5.494-.182.27.27,0,0,1,.22.388c-.759,1.536-3.883,7.785-5.447,9.832a.27.27,0,0,1-.217.107l-6.115-.056a.27.27,0,0,1-.256-.343Z" transform="translate(-484.461 -845.665)" fill="url(#linear-gradient-27)"/>
    <path id="Path_9339" data-name="Path 9339" d="M541.164,987.6a6.714,6.714,0,0,1-.219-2.045c.148-.536.435-1.224,1.392-1.068a13.945,13.945,0,0,1,2.084.555.547.547,0,0,1-.783.473l.45.349s-.064.559-.68.26l.419.463a.488.488,0,0,1-.715.164C542.661,986.459,542.445,987.785,541.164,987.6Z" transform="translate(-488.084 -888.537)" fill="url(#linear-gradient-28)"/>
    <path id="Path_9340" data-name="Path 9340" d="M565.8,946.469l-.091-.027.536-1.82a.777.777,0,0,1,.582-.543,53.688,53.688,0,0,1,6.36-.429v.1a53.649,53.649,0,0,0-6.342.427.68.68,0,0,0-.511.477Z" transform="translate(-510.477 -851.682)" fill="#fff"/>
    <path id="Path_9341" data-name="Path 9341" d="M1675.69,806.921a5.726,5.726,0,0,0-6.59-5.311,5.258,5.258,0,0,1-2.753-.388,3.713,3.713,0,0,0-.363-.122,3.6,3.6,0,0,1-1.77-1.115,3.454,3.454,0,0,0-3.625-1.045,1.486,1.486,0,0,0-1.12,1.395c.169.073.333.157.5.247a3.992,3.992,0,0,1,.64.019,1.917,1.917,0,0,1,1.359.747,2.8,2.8,0,0,1,1.115.184,3.618,3.618,0,0,0-.034,6.106,4.628,4.628,0,0,1,1.707,1.977,5.727,5.727,0,0,0,10.936-2.7Z" transform="translate(-1498.066 -720.874)" fill="url(#linear-gradient-29)"/>
    <path id="Path_9342" data-name="Path 9342" d="M1500.166,1076.467l-5.727-1.052a.155.155,0,0,0-.181.119l-2,8.655a.154.154,0,0,0,.023.123.158.158,0,0,0,.106.067l7.726,1.149a.156.156,0,0,0,.18-.155v-8.751A.157.157,0,0,0,1500.166,1076.467Z" transform="translate(-1347.085 -970.653)" fill="url(#linear-gradient-30)"/>
    <path id="Path_9343" data-name="Path 9343" d="M1526.171,1080.825a.206.206,0,1,1-.206-.2A.206.206,0,0,1,1526.171,1080.825Z" transform="translate(-1377.335 -975.356)" fill="url(#linear-gradient-31)"/>
    <path id="Path_9344" data-name="Path 9344" d="M1555.32,1087.086a.2.2,0,1,1-.06-.146A.2.2,0,0,1,1555.32,1087.086Z" transform="translate(-1403.656 -981.008)" fill="url(#linear-gradient-32)"/>
    <path id="Path_9345" data-name="Path 9345" d="M1530.066,1053.366h0a.07.07,0,0,1-.07-.07c0-1-.154-3.607-.862-3.689-.82-.1-1.787,2.894-1.824,3.088a.066.066,0,0,1-.021.047.066.066,0,0,1-.049.018.074.074,0,0,1-.07-.075,8.536,8.536,0,0,1,1.463-3.009.674.674,0,0,1,.516-.213c.42.047.714.712.874,1.976a17.312,17.312,0,0,1,.116,1.844.071.071,0,0,1-.074.082Z" transform="translate(-1378.609 -947.221)" fill="#fff"/>
    <path id="Path_9346" data-name="Path 9346" d="M1543.3,934.727s-3.135,7.155-7.594,8.263a10.514,10.514,0,0,0-2.33.376c-.516.32.112,1.183.362,1.838s.347.347.459.139-.357-.867.255-1.127.426.139.139.485a1.328,1.328,0,0,0-.26.9,6.768,6.768,0,0,0,.919-.408,1.538,1.538,0,0,0,.636-.79,11.006,11.006,0,0,0,8.757-6.782S1544.875,931.849,1543.3,934.727Z" transform="translate(-1384.039 -842.898)" fill="url(#linear-gradient-33)"/>
    <path id="Path_9347" data-name="Path 9347" d="M1750.839,1088.81a.071.071,0,0,1-.07-.059c0-.023-.378-2.346-1.091-2.753a.389.389,0,0,0-.352-.025c-.96.381-.47,2.57-.465,2.592a.071.071,0,0,1-.053.084.069.069,0,0,1-.083-.052c-.022-.1-.52-2.33.551-2.755a.525.525,0,0,1,.473.034c.777.44,1.145,2.755,1.165,2.854a.069.069,0,0,1-.058.08Z" transform="translate(-1578.535 -980.033)" fill="#fff"/>
    <path id="Path_9348" data-name="Path 9348" d="M1739.836,1111.212l-3.7-.342-.824.457.706.883,3.382-.345Z" transform="translate(-1566.545 -1002.67)" fill="url(#linear-gradient-34)"/>
    <path id="Path_9349" data-name="Path 9349" d="M1776.427,1341.987l.061,1.416a.582.582,0,0,0,.469.546,8.941,8.941,0,0,0,1.875.177.5.5,0,0,0,.468-.612,5.116,5.116,0,0,0-.8-1.906l-1.553-.121a.485.485,0,0,0-.521.5Z" transform="translate(-1603.671 -1210.9)" fill="url(#linear-gradient-35)"/>
    <path id="Path_9350" data-name="Path 9350" d="M1640.027,1167.52l-.388,1.525s.184,8.98.063,12.557a2.8,2.8,0,0,1-.537,1.553l-1.715,2.37,4.067-1.991.115-.469-.568-.924,1.611-9.918a3.066,3.066,0,0,0-.217-1.722l-.684-1.574Z" transform="translate(-1478.184 -1053.821)" fill="url(#linear-gradient-36)"/>
    <path id="Path_9351" data-name="Path 9351" d="M1631.709,1324.922l1.24.1a.749.749,0,0,0,.615-.245c.426-.473,1.3-1.39,1.689-1.386.518.006.31,1.835.31,1.835l.291.022.544-2.25a1.359,1.359,0,0,0-.6-1.466h0a1.911,1.911,0,0,1-.855,1.2c-.67.336-2.739,1.565-2.739,1.565a1.771,1.771,0,0,0-.506-.026A.329.329,0,0,0,1631.709,1324.922Z" transform="translate(-1472.726 -1192.881)" fill="url(#linear-gradient-37)"/>
    <path id="Path_9352" data-name="Path 9352" d="M1718.31,1174.224s4.391,10.179,5.037,12.475a21.485,21.485,0,0,1,.784,4.357c0,.277.318.568,1.262.642a.914.914,0,0,0,.874-.318.553.553,0,0,0,.063-.532c-.251-.627-1.047-2.629-1.33-3.53-.337-1.077-.868-5.879-1.233-7.564a8.75,8.75,0,0,0-2.805-5.323S1719.6,1172.871,1718.31,1174.224Z" transform="translate(-1551.195 -1059.376)" fill="url(#linear-gradient-38)"/>
    <path id="Path_9353" data-name="Path 9353" d="M1635.444,903.188a9.4,9.4,0,0,1,2.727-8.661,12.584,12.584,0,0,0-3.968-2.711,3.181,3.181,0,0,0-3.413.479c-1.039.9-2.169,2.169-2.017,3.358.16,1.262,2.019,7.626,2.019,7.626A5.155,5.155,0,0,0,1635.444,903.188Z" transform="translate(-1470.336 -804.614)" fill="url(#linear-gradient-39)"/>
    <path id="Path_9354" data-name="Path 9354" d="M1652.718,1014.72c-.413-1.672-2.73-3.02-2.73-3.02a5.155,5.155,0,0,1-4.653.09,9.3,9.3,0,0,0-.43,3.567c.2,1.75,1.439,12.993,1.439,12.993,3.259.929,8.457-.019,8.457-.019C1652.983,1024.421,1653.13,1016.389,1652.718,1014.72Z" transform="translate(-1484.88 -913.126)" fill="url(#linear-gradient-40)"/>
    <path id="Path_9355" data-name="Path 9355" d="M1663.032,853.288l.6,4.077c.07.436-.2.478-.64.514-.7.058-1.589.037-1.851-.538a.532.532,0,0,1-.041-.187l-.2-3.4a.608.608,0,0,1,.4-.609l.927-.327a.607.607,0,0,1,.8.472Z" transform="translate(-1499.357 -769.634)" fill="url(#linear-gradient-41)"/>
    <path id="Path_9356" data-name="Path 9356" d="M1776.9,1123.245l1.27-.73-3.057-8.125-.734.5Z" transform="translate(-1601.822 -1005.848)" fill="url(#linear-gradient-42)"/>
    <path id="Path_9357" data-name="Path 9357" d="M1742.981,1092.525h0a.071.071,0,0,1-.065-.076c0-.023.164-2.38-.5-3.143a.608.608,0,0,0-.436-.228.583.583,0,0,0-.444.173c-.721.672-.763,3-.764,3.027a.07.07,0,0,1-.07.07h0a.071.071,0,0,1-.069-.072c0-.1.044-2.415.809-3.128a.708.708,0,0,1,.546-.21.748.748,0,0,1,.534.276c.717.819.54,3.223.539,3.247a.07.07,0,0,1-.077.064Z" transform="translate(-1571.348 -982.866)" fill="#fff"/>
    <path id="Path_9358" data-name="Path 9358" d="M1706.28,924.715A19.267,19.267,0,0,1,1710,931.88a21.039,21.039,0,0,1,.523,6.091s-.8.6-.513,1.02.213.711.582.794.823.194.768-.528.812-.874.667-1.311.838-12.224-3.907-15.421l-.068-.045C1706.044,923.2,1705.987,924.327,1706.28,924.715Z" transform="translate(-1540.215 -832.567)" fill="url(#linear-gradient-43)"/>
    <path id="Path_9359" data-name="Path 9359" d="M1735.29,1115.85l3.794.354,2.521,8.359-5.449.143Z" transform="translate(-1566.526 -1007.166)" fill="url(#linear-gradient-44)"/>
    <path id="Path_9360" data-name="Path 9360" d="M1785.04,1138.954h-.014a.051.051,0,0,1-.037-.062l.244-.929-1.922-5.964a.051.051,0,0,1,.033-.063.05.05,0,0,1,.063.032l1.927,5.979a.056.056,0,0,1,0,.028l-.248.944A.05.05,0,0,1,1785.04,1138.954Z" transform="translate(-1609.884 -1021.688)" fill="url(#linear-gradient-45)"/>
    <path id="Path_9361" data-name="Path 9361" d="M1805.9,1194.452a.045.045,0,0,1-.021,0l-.657-.314a.051.051,0,0,1-.023-.068.051.051,0,0,1,.067-.023l.657.313a.051.051,0,0,1-.022.1Z" transform="translate(-1629.646 -1077.769)" fill="url(#linear-gradient-46)"/>
    <path id="Path_9362" data-name="Path 9362" d="M1642.718,817.328a5.369,5.369,0,0,0-2.747,2.33c-1.243,1.921-.65,2.97.239,3.223a4.283,4.283,0,0,0,3.861-.717C1645.684,821.03,1644.662,816.866,1642.718,817.328Z" transform="translate(-1479.819 -737.59)" fill="url(#linear-gradient-47)"/>
    <path id="Path_9363" data-name="Path 9363" d="M1683,849.828s.751-1.474,1.391-.761-.776,1.351-1.33,1.545Z" transform="translate(-1519.312 -766.103)" fill="url(#linear-gradient-48)"/>
    <path id="Path_9364" data-name="Path 9364" d="M1661.493,804.266s1.479-2.862-1.181-3.257l-.686.354a1.723,1.723,0,0,1,.959-2.378,3.445,3.445,0,0,1,4.4,2.707c.391,2.254-.194,3.592-1.474,4.478s-1.585-.355-1.585-.355.749-.883.567-1.436-.847,0-.847,0Z" transform="translate(-1498.057 -720.916)" fill="url(#linear-gradient-49)"/>
    <path id="Path_9365" data-name="Path 9365" d="M1686.739,827.74a2.038,2.038,0,0,1,.524.449c.149.182.256.381.4.559a4.87,4.87,0,0,0,.935.98,2.03,2.03,0,0,0,1.229.475,4.076,4.076,0,0,0,1.3-.343,16.119,16.119,0,0,1,2.532-1.056,3.346,3.346,0,0,1,2.643.506.023.023,0,0,1,.006.033.022.022,0,0,1-.015.01.023.023,0,0,1-.017,0,3.37,3.37,0,0,0-2.6-.466,16.449,16.449,0,0,0-2.513,1.068,4.153,4.153,0,0,1-1.338.342,2.12,2.12,0,0,1-1.279-.5,4.943,4.943,0,0,1-.943-1c-.14-.182-.249-.388-.388-.564a2,2,0,0,0-.5-.447.023.023,0,0,1-.007-.032.023.023,0,0,1,.015-.011A.022.022,0,0,1,1686.739,827.74Z" transform="translate(-1522.655 -747.019)" fill="#bdd0fb"/>
    <path id="Path_9366" data-name="Path 9366" d="M1691.626,841.529a6.67,6.67,0,0,0,.874,1.255,2.969,2.969,0,0,0,1.231.858,2.564,2.564,0,0,0,1.488.023,7.5,7.5,0,0,0,1.417-.568,10.317,10.317,0,0,1,1.423-.617,4.009,4.009,0,0,1,1.546-.163,3.883,3.883,0,0,1,1.486.448,3.257,3.257,0,0,1,1.145,1.036.024.024,0,0,1-.039.027,3.183,3.183,0,0,0-1.146-.987,3.848,3.848,0,0,0-2.957-.249,10.2,10.2,0,0,0-1.4.623,6.7,6.7,0,0,1-1.444.572,2.68,2.68,0,0,1-1.553-.041,3.076,3.076,0,0,1-1.262-.9,6.5,6.5,0,0,1-.85-1.294.023.023,0,0,1,.01-.032.023.023,0,0,1,.033.01Z" transform="translate(-1527.059 -759.461)" fill="#bdd0fb"/>
    <path id="Path_9367" data-name="Path 9367" d="M1703.643,858.636a3.593,3.593,0,0,0,1.812.644,3.426,3.426,0,0,0,.96-.068,5.734,5.734,0,0,0,.923-.3,15.554,15.554,0,0,1,1.844-.732,3.574,3.574,0,0,1,.994-.129,2.167,2.167,0,0,1,.971.247.024.024,0,0,1,.01.032.024.024,0,0,1-.031.01,2.735,2.735,0,0,0-1.9-.023,18.413,18.413,0,0,0-1.816.754,5.271,5.271,0,0,1-.954.3,3.386,3.386,0,0,1-2.834-.7.025.025,0,0,1,0-.033.023.023,0,0,1,.023,0Z" transform="translate(-1537.925 -774.389)" fill="#bdd0fb"/>
  </g>
</svg>
