<svg xmlns="http://www.w3.org/2000/svg" width="12" height="16" viewBox="0 0 12 16">
  <path id="hourglass-regular" d="M0,.75A.75.75,0,0,1,.75,0h10.5a.75.75,0,1,1,0,1.5H11v.593a4.927,4.927,0,0,1-1.391,3.36L7.059,8l2.55,2.547A4.874,4.874,0,0,1,11,13.906V14.5h.25a.75.75,0,1,1,0,1.5H.75a.75.75,0,1,1,0-1.5H1v-.594a4.751,4.751,0,0,1,1.391-3.359L4.941,8,2.391,5.453A4.8,4.8,0,0,1,1,2.093V1.5H.75A.75.75,0,0,1,0,.75ZM3.118,12H8.881a3.3,3.3,0,0,0-.334-.391L6,9.059l-2.547,2.55A1.86,1.86,0,0,0,3.118,12ZM8.881,4A3.452,3.452,0,0,0,9.5,2.093V1.5h-7v.593A3.247,3.247,0,0,0,3.118,4Z" fill="#000000"/>
</svg>
