<svg xmlns="http://www.w3.org/2000/svg" xmlns:xlink="http://www.w3.org/1999/xlink" viewBox="0 0 2753.2 2741.86"><defs><style>.cls-1{fill:none;}.cls-2{fill:url(#linear-gradient);}.cls-3{isolation:isolate;}.cls-4{fill:#f4f7fa;}.cls-5{fill:url(#linear-gradient-2);}.cls-6{clip-path:url(#clip-path);}.cls-7{opacity:0.5;}.cls-18,.cls-22,.cls-7{mix-blend-mode:soft-light;}.cls-18,.cls-22,.cls-8{fill:#fff;}.cls-9{clip-path:url(#clip-path-2);}.cls-10{fill:url(#linear-gradient-4);}.cls-11{fill:url(#linear-gradient-5);}.cls-12{fill:url(#linear-gradient-6);}.cls-13{fill:url(#linear-gradient-7);}.cls-14{fill:url(#linear-gradient-8);}.cls-15{fill:url(#linear-gradient-9);}.cls-16,.cls-20{fill:#bfc8d6;}.cls-17{fill:#d8dee8;}.cls-18{opacity:0.48;}.cls-19{fill:url(#linear-gradient-10);}.cls-20,.cls-33,.cls-41{opacity:0.3;mix-blend-mode:multiply;}.cls-21{fill:url(#linear-gradient-11);}.cls-22{opacity:0.74;}.cls-23{fill:url(#linear-gradient-12);}.cls-24{fill:url(#linear-gradient-13);}.cls-25{fill:url(#linear-gradient-14);}.cls-26{fill:url(#linear-gradient-15);}.cls-27{fill:url(#linear-gradient-16);}.cls-28{fill:url(#linear-gradient-17);}.cls-29{fill:url(#linear-gradient-18);}.cls-30{fill:url(#linear-gradient-19);}.cls-31{fill:url(#linear-gradient-20);}.cls-32{fill:url(#linear-gradient-21);}.cls-34{fill:url(#linear-gradient-22);}.cls-35{fill:url(#linear-gradient-23);}.cls-36{fill:url(#linear-gradient-24);}.cls-37{fill:url(#linear-gradient-25);}.cls-38{fill:url(#linear-gradient-26);}.cls-39{fill:url(#linear-gradient-27);}.cls-40{fill:url(#linear-gradient-28);}.cls-41{fill:url(#linear-gradient-29);}.cls-42{fill:url(#linear-gradient-30);}.cls-43{fill:url(#linear-gradient-31);}.cls-44{fill:url(#linear-gradient-32);}.cls-45{fill:url(#linear-gradient-33);}.cls-46{fill:url(#linear-gradient-34);}.cls-47{fill:url(#linear-gradient-35);}</style><linearGradient id="linear-gradient" x1="1968.2" y1="1503.76" x2="1729.64" y2="2144.11" gradientUnits="userSpaceOnUse"><stop offset="0" stop-color="#aa80f9"/><stop offset="1" stop-color="#6165d7"/></linearGradient><linearGradient id="linear-gradient-2" x1="5459.71" y1="44.91" x2="6264.34" y2="44.91" gradientTransform="translate(-2682.81 -2298.9) rotate(40.7)" gradientUnits="userSpaceOnUse"><stop offset="0" stop-color="#ff9085"/><stop offset="1" stop-color="#fb6fbb"/></linearGradient><clipPath id="clip-path"><path class="cls-1" d="M1434,2120.36c-71.12,18.52-124.94-65-78.22-121.76a596.3,596.3,0,0,0,56.85-82c98.94-172,47.8-285,136.92-596.4,56.34-196.9,97.65-333.75,216.64-382,93.24-37.83,223-16.75,286.18,56.78,52.51,61.14,65.09,165.7,59,236.44-5,57.66-22.73,95.9,1.66,133.22,24.91,38.14,64.41,30.33,89.2,60.2,50.26,60.59-23.58,199.49-35.51,221.94-132.75,249.71-424.25,366.2-552,415.48A1670.16,1670.16,0,0,1,1434,2120.36Z"/></clipPath><clipPath id="clip-path-2"><path class="cls-2" d="M1300.87,2121.55c108.17,63.36,255,128.65,422.2,145.14,42.67,4.21,306.24,30.22,336.46-79.23,10.64-38.55-16.66-61.35-3.32-113.14,15.79-61.38,64.23-68.65,125.26-121.29,36.42-31.41,143-123.34,110.79-226.84-19.24-61.85-87.17-125-154.82-145.5-99.21-30-178.37,37.76-310.31,154.76-117,103.71-124.13,141.6-209.66,214.81C1554,2004.6,1454.4,2072.37,1300.87,2121.55Z"/></clipPath><linearGradient id="linear-gradient-4" x1="2401.04" y1="735.4" x2="2042.69" y2="633.99" gradientUnits="userSpaceOnUse"><stop offset="0" stop-color="#311944"/><stop offset="1" stop-color="#a03976"/></linearGradient><linearGradient id="linear-gradient-5" x1="2400.1" y1="738.72" x2="2041.75" y2="637.31" xlink:href="#linear-gradient-4"/><linearGradient id="linear-gradient-6" x1="2033.3" y1="508.94" x2="2038.9" y2="961.46" gradientTransform="matrix(1, 0, 0, 1, 0, 0)" xlink:href="#linear-gradient-2"/><linearGradient id="linear-gradient-7" x1="2359.64" y1="525.68" x2="1657.67" y2="327.04" xlink:href="#linear-gradient-4"/><linearGradient id="linear-gradient-8" x1="2357.8" y1="532.18" x2="1655.82" y2="333.54" xlink:href="#linear-gradient-4"/><linearGradient id="linear-gradient-9" x1="1639.27" y1="82.07" x2="1650.25" y2="968.51" gradientTransform="matrix(1, 0, 0, 1, 0, 0)" xlink:href="#linear-gradient-2"/><linearGradient id="linear-gradient-10" x1="687.46" y1="2441.52" x2="3351.22" y2="2441.52" gradientUnits="userSpaceOnUse"><stop offset="0.49" stop-color="#ebeff2"/><stop offset="1" stop-color="#fff"/></linearGradient><linearGradient id="linear-gradient-11" x1="201.86" y1="1358.1" x2="1712.86" y2="1358.1" gradientUnits="userSpaceOnUse"><stop offset="0" stop-color="#e38ddd"/><stop offset="1" stop-color="#9571f6"/></linearGradient><linearGradient id="linear-gradient-12" x1="965.39" y1="414.3" x2="836.33" y2="1580.76" gradientUnits="userSpaceOnUse"><stop offset="0" stop-color="#40447e"/><stop offset="1" stop-color="#3c3b6b"/></linearGradient><linearGradient id="linear-gradient-13" x1="483.31" y1="1701.06" x2="1487.09" y2="1701.06" gradientTransform="matrix(1, 0, 0, 1, 0, 0)" xlink:href="#linear-gradient-2"/><linearGradient id="linear-gradient-14" x1="-1074.9" y1="1294.64" x2="-750.06" y2="2852.5" gradientTransform="matrix(-1, 0, 0, 1, 992.96, 0)" gradientUnits="userSpaceOnUse"><stop offset="0" stop-color="#ffc444"/><stop offset="1" stop-color="#f36f56"/></linearGradient><linearGradient id="linear-gradient-15" x1="2538.71" y1="2659.11" x2="2651.23" y2="2659.11" gradientTransform="matrix(1, 0.03, -0.03, 1, -257.6, -17.43)" gradientUnits="userSpaceOnUse"><stop offset="0" stop-color="#444b8c"/><stop offset="1" stop-color="#26264f"/></linearGradient><linearGradient id="linear-gradient-16" x1="2275.87" y1="2678.48" x2="2316.21" y2="2678.48" gradientTransform="matrix(1, 0, 0, 1, 0, 0)" xlink:href="#linear-gradient-14"/><linearGradient id="linear-gradient-17" x1="2889.83" y1="2191.94" x2="3009.38" y2="2191.94" gradientTransform="matrix(0.96, 0.27, -0.27, 0.96, -367.28, -196.55)" xlink:href="#linear-gradient-15"/><linearGradient id="linear-gradient-18" x1="1916.21" y1="2665.16" x2="1966.03" y2="2665.16" gradientTransform="matrix(1, 0, 0, 1, 0, 0)" xlink:href="#linear-gradient-14"/><linearGradient id="linear-gradient-19" x1="-884.31" y1="2488.43" x2="-1203.17" y2="1769.65" gradientTransform="matrix(-1, 0, 0, 1, 992.96, 0)" xlink:href="#linear-gradient-12"/><linearGradient id="linear-gradient-20" x1="-1469.46" y1="2314.35" x2="-1788.31" y2="1595.59" gradientTransform="matrix(-0.99, -0.12, -0.12, 0.99, 858.94, 45.48)" xlink:href="#linear-gradient-12"/><linearGradient id="linear-gradient-21" x1="-1369.84" y1="1356.15" x2="-1045" y2="2914" xlink:href="#linear-gradient-14"/><linearGradient id="linear-gradient-22" x1="-1458.88" y1="2340.69" x2="-1316.29" y2="1663.37" xlink:href="#linear-gradient-14"/><linearGradient id="linear-gradient-23" x1="-1580.45" y1="1215.69" x2="-1323.49" y2="2447.98" xlink:href="#linear-gradient-14"/><linearGradient id="linear-gradient-24" x1="-1072.83" y1="1752.1" x2="-1133.63" y2="1579.84" gradientTransform="matrix(-1, 0, 0, 1, 992.96, 0)" gradientUnits="userSpaceOnUse"><stop offset="0" stop-color="#311944"/><stop offset="1" stop-color="#893976"/></linearGradient><linearGradient id="linear-gradient-25" x1="-1338.43" y1="1502.52" x2="-1316.14" y2="1656.54" xlink:href="#linear-gradient-24"/><linearGradient id="linear-gradient-26" x1="2206.45" y1="1526.7" x2="2332.44" y2="1526.7" gradientTransform="matrix(1, 0, 0, 1, 0, 0)" xlink:href="#linear-gradient-14"/><linearGradient id="linear-gradient-27" x1="-896.71" y1="1516.01" x2="-1015.24" y2="1347.69" gradientTransform="matrix(-1, 0, 0, 1, 992.96, 0)" xlink:href="#linear-gradient-15"/><linearGradient id="linear-gradient-28" x1="-1124.08" y1="1794.58" x2="-864.67" y2="1267.66" xlink:href="#linear-gradient-24"/><linearGradient id="linear-gradient-29" x1="-1250.8" y1="1456.38" x2="-680.92" y2="1456.38" xlink:href="#linear-gradient-24"/><linearGradient id="linear-gradient-30" x1="1665.02" y1="1591.15" x2="1750.02" y2="1591.15" gradientTransform="matrix(1, 0, 0, 1, 0, 0)" xlink:href="#linear-gradient-14"/><linearGradient id="linear-gradient-31" x1="2308.84" y1="899.39" x2="2287.11" y2="1268.83" gradientTransform="matrix(1, 0, 0, 1, 0, 0)" xlink:href="#linear-gradient-14"/><linearGradient id="linear-gradient-32" x1="2427.85" y1="895.43" x2="2342.76" y2="679.31" gradientTransform="translate(-79.51 164.71) rotate(0.21)" gradientUnits="userSpaceOnUse"><stop offset="0" stop-color="#311944"/><stop offset="1" stop-color="#6b3976"/></linearGradient><linearGradient id="linear-gradient-33" x1="2214.99" y1="944.43" x2="2324.01" y2="944.43" gradientTransform="matrix(1, 0, 0, 1, 0, 0)" xlink:href="#linear-gradient-14"/><linearGradient id="linear-gradient-34" x1="2401.85" y1="905.78" x2="2316.68" y2="689.44" xlink:href="#linear-gradient-32"/><linearGradient id="linear-gradient-35" x1="2225.47" y1="963.16" x2="2249.43" y2="963.16" gradientTransform="matrix(1, 0, 0, 1, 0, 0)" xlink:href="#linear-gradient-14"/></defs><title>delete-account</title><g class="cls-3"><g id="Illustration"><g id="Order_closed" data-name="Order closed"><path class="cls-4" d="M2712.66,1164c-67.93-444.59-346.41-990.81-896.6-1048,0,0-417.72-50.81-829.51,26.2-244.39,45.7-458.69,181.75-594.29,377.29s-180.89,434-125.92,661.29c35.7,147.64,59.83,300.45,53.21,452.16-11.53,264-4.9,510.51,251.35,668,228.8,140.6,516.74,264.61,791.45,286.33,186.69,14.76,396.05-9.13,576-57.73C2855.3,2281.79,2780.58,1608.55,2712.66,1164Z"/><path class="cls-5" d="M1459.05,2113.62c-77.91,21.57-138.57-68.19-89.48-132.42a594.5,594.5,0,0,0,43-64.59c98.94-172,47.8-285,136.92-596.4,56.34-196.9,97.65-333.75,216.64-382,93.24-37.83,223-16.75,286.18,56.78,52.51,61.14,65.09,165.7,59,236.44-5,57.66-22.73,95.9,1.66,133.22,24.91,38.14,64.41,30.33,89.2,60.2,50.26,60.59-23.58,199.49-35.51,221.94-132.75,249.71-424.25,366.2-552,415.48C1571.59,2078.84,1519.53,2096.88,1459.05,2113.62Z"/><g class="cls-6"><g class="cls-7"><path class="cls-8" d="M1056.16,2200.59l-.76-6.73c124.89-14,236-40.35,330.31-78.39,139-56.07,237.11-136.13,291.66-238,42.73-79.77,58-169.92,79.19-294.69,16.9-99.61,19.89-171.74,22.53-235.38,3.46-83.24,6.19-149,38.71-237.06,33-89.37,86.72-172.83,159.67-248.07l4.86,4.71c-72.29,74.56-125.51,157.22-158.18,245.7-32.15,87.08-34.86,152.36-38.29,235-2.65,63.84-5.65,136.2-22.63,236.23-20.47,120.69-36.64,216-79.9,296.76-55.32,103.27-154.6,184.36-295.09,241C1293.38,2160,1181.65,2186.54,1056.16,2200.59Z"/><path class="cls-8" d="M1771.65,1514.07l-3-2.36c-.57-.45-58.19-46-106-129.52-44.09-77.1-88.67-203.36-50.7-367l6.6,1.53c-37.48,161.49,6.49,286,50,362.1,41,71.62,89,114.75,101.29,125.11,98.69-162.57,221.81-248.81,308-292.58,94.11-47.81,165.88-56.74,166.6-56.82l.8,6.72c-.71.08-71.52,8.93-164.62,56.28-85.89,43.68-208.86,130-307,293.25Z"/><path class="cls-8" d="M1717.83,1781.74l-.84-2.31c-.4-1.1-40.52-111-102.31-213.38-61.4-101.68-246.64-179.19-248.51-180l2.59-6.26c1.89.78,189.16,79.13,251.71,182.72,57.15,94.64,95.86,195.74,102,212.25,217.75-10.39,554.52-427.23,557.91-431.46l5.28,4.24c-.85,1.06-86.72,107.73-198.59,213.93-150.59,142.94-274,217-366.81,220.15Z"/><path class="cls-8" d="M1555.62,2113.07c-75.45,0-123.67-6.3-124.36-6.39l-6.69-.9,4.72-4.82c74.59-76.32,91.24-172.32,49.51-285.35-31.24-84.62-85.26-147.38-85.8-148l5.11-4.44c.55.63,55.37,64.33,87,150.09,41.22,111.65,25.2,210.9-46.3,287.49,24.5,2.65,114,10.6,230.91.76,126.53-10.65,312-44.91,477.28-147.66l321.08-199.67,3.58,5.75L2150.62,1959.6c-166.44,103.5-353.15,138-480.47,148.67C1627.8,2111.83,1589,2113.07,1555.62,2113.07Z"/></g></g><path class="cls-2" d="M1300.87,2121.55c108.17,63.36,255,128.65,422.2,145.14,42.67,4.21,306.24,30.22,336.46-79.23,10.64-38.55-16.66-61.35-3.32-113.14,15.79-61.38,64.23-68.65,125.26-121.29,36.42-31.41,143-123.34,110.79-226.84-19.24-61.85-87.17-125-154.82-145.5-99.21-30-178.37,37.76-310.31,154.76-117,103.71-124.13,141.6-209.66,214.81C1554,2004.6,1454.4,2072.37,1300.87,2121.55Z"/><g class="cls-9"><g class="cls-7"><path class="cls-8" d="M1356.47,2123a700,700,0,0,1-198.62-28.57c-125.45-36.94-240.44-106.85-341.78-207.78l4.78-4.8C921.38,1982,1035.41,2051.32,1159.76,2088c165.65,48.78,342,34.4,524.23-42.72,189.84-80.34,338.45-208.65,429.69-302.14,63.1-64.65,107.78-150.77,132.81-256l6.59,1.57c-25.32,106.41-70.59,193.6-134.55,259.14-91.68,93.93-241,222.86-431.9,303.65C1574,2099.13,1463.58,2123,1356.47,2123Z"/><path class="cls-8" d="M1913.84,1920.64l-.48-3c-.35-2.21-33.49-223,106.75-364.47l4.81,4.77C1896,1688,1916.22,1886.74,1919.63,1913.56c315.65-17.18,411.8-189.2,433.79-241.66.62-1.47,1-2.37,1.21-2.69l5.83,3.44-2.92-1.72,3,1.66c-.16.29-.42,1-.83,1.93-22.46,53.55-120.74,229.54-442.8,246Z"/><path class="cls-8" d="M2001,2175h-1.12c-71-.22-183-22.13-313.45-125.32l-1.42-1.12.15-1.8c.14-1.69,14.94-170.92,133.15-344.4l119.07-174.74,5.59,3.82-119.06,174.74C1713.22,1868.52,1693.94,2027,1692,2045.48c71.24,56.06,182,122.34,307.82,122.72h1.07c74.84,0,119.88-23.72,120.32-24l3.21,6C2122.56,2151.22,2077.43,2175,2001,2175Z"/></g></g><path class="cls-10" d="M2124.05,709.58c11.48,5.83,25.9.48,32.2-12s2.12-27.23-9.35-33c-.6-.3-1.2-.56-1.81-.8a146.34,146.34,0,0,0,4.82-20.74c.65,0,1.31,0,2-.07,13.1-1.17,23.49-13.2,23.22-26.88s-11.11-23.81-24.21-22.64c-.68.06-1.35.17-2,.28a133.34,133.34,0,0,0-5.61-19.8c.6-.35,1.2-.72,1.79-1.13,11.2-7.84,14.78-23.33,8-34.59s-21.37-14-32.57-6.18c-.57.4-1.11.84-1.65,1.28a117.48,117.48,0,0,0-14.52-13.56c.36-.61.73-1.22,1-1.87,6.31-12.42,14.56-26,3-31.64-26.76-13.06-38.24-1.88-44.55,10.54-.32.65-.61,1.3-.88,2a118.31,118.31,0,0,0-19.52-3.73c0-.69.08-1.38.06-2.08-.27-13.68,3.79-21.08-9.36-21.33-28.66-.56-38.33,11.88-38,25.55,0,.72.07,1.42.14,2.11a133.81,133.81,0,0,0-19.3,7.16,18.3,18.3,0,0,0-1-1.8c-6.78-11.26-21.36-14-32.56-6.18s-14.79,23.34-8,34.6c.34.57.72,1.11,1.11,1.65a145,145,0,0,0-13.9,16.12c-.55-.35-1.12-.69-1.71-1-11.48-5.82-25.9-.47-32.21,11.95s-2.12,27.23,9.36,33.05a19.19,19.19,0,0,0,1.81.8,146.34,146.34,0,0,0-4.82,20.74c-.65,0-1.32,0-2,.07-13.09,1.17-23.48,13.2-23.21,26.88S1880.93,667.12,1894,666c.68-.06,1.35-.16,2-.28a133.34,133.34,0,0,0,5.61,19.8c-.6.35-1.2.72-1.79,1.13-11.2,7.85-14.78,23.34-8,34.59s29.25,16.5,40.45,8.65c.57-.41-6.77-3.31-6.23-3.75a117.48,117.48,0,0,0,14.52,13.56c-.36.61-.73,1.22-1,1.87-6.31,12.42-2.12,27.22,9.35,33.05s25.9.47,32.21-12c.32-.65.6-1.3.88-2a118.29,118.29,0,0,0,19.52,3.72c0,.69-.08,1.38-.06,2.09.27,13.67,11.11,23.81,24.2,22.64s23.49-13.2,23.21-26.87c0-.72-.07-1.41-.14-2.11A132.09,132.09,0,0,0,2068,753c.3.61.61,1.22,1,1.8,6.78,11.26,21.36,14,32.56,6.18s14.79-23.34,8-34.6c-.34-.57-.72-1.11-1.11-1.64a147.09,147.09,0,0,0,13.9-16.13C2122.89,708.94,2123.46,709.28,2124.05,709.58ZM1981,711.39c-41.67-21.15-56.88-74.88-34-120s75.25-64.54,116.92-43.38,56.88,74.88,34,120S2022.66,732.55,1981,711.39Z"/><path class="cls-11" d="M2151.89,643c13.1-1.17,23.49-13.2,23.22-26.88s-11.11-23.81-24.21-22.64c-.68.06-1.35.17-2,.28a133.34,133.34,0,0,0-5.61-19.8c.6-.35,1.2-.72,1.79-1.13,11.2-7.84,25.06-26.81,17.16-37.31-15-19.94-30.53-11.31-41.73-3.46-.57.4-1.11.84-1.65,1.28a117.48,117.48,0,0,0-14.52-13.56c.36-.61.73-1.22,1-1.87a26,26,0,0,0,1.47-20.55q-16.23,28.56-32,57.39c33.25,24.36,43.83,72.36,23,113.29-17.61,34.68-52.61,54.15-86.78,51.71-1.53,3.95-3,7.93-4.66,11.84-4.43,10.63-9.46,21-14.5,31.43q4.76.9,9.55,1.4c0,.69-.08,1.38-.06,2.09.27,13.67,8.57,25.29,32.3,24,13.13-.7,15.39-14.59,15.11-28.26,0-.72-.07-1.41-.14-2.11A132.09,132.09,0,0,0,2068,753c.3.61.61,1.22,1,1.8,6.78,11.26,30.32,16.05,41.52,8.2s5.83-25.36-1-36.62c-.34-.57-.72-1.11-1.11-1.64a146,146,0,0,0,13.9-16.13c.55.35,1.12.69,1.71,1,11.48,5.83,25.9.47,32.2-12s2.12-27.23-9.35-33c-.6-.3-1.2-.56-1.81-.8a146.34,146.34,0,0,0,4.82-20.74C2150.56,643,2151.22,643,2151.89,643Z"/><path class="cls-12" d="M2136.39,711c11.48,5.83,25.9.48,32.21-12s2.12-27.22-9.36-33c-.59-.3-1.2-.55-1.81-.8a145.7,145.7,0,0,0,4.82-20.74c.66,0,1.32,0,2-.07,13.09-1.16,23.48-13.2,23.21-26.87s-11.11-23.82-24.2-22.65c-.69.06-1.36.17-2,.29a133.13,133.13,0,0,0-5.61-19.81c.61-.35,1.21-.71,1.79-1.12,11.2-7.85,14.78-23.34,8-34.6s-21.36-14-32.57-6.18c-.57.41-1.11.84-1.64,1.28a119.06,119.06,0,0,0-14.53-13.56c.37-.61.73-1.22,1.06-1.86,6.31-12.43,2.12-27.23-9.36-33s-25.89-.48-32.2,11.95c-.33.64-.61,1.29-.88,1.95a118.51,118.51,0,0,0-19.52-3.73c0-.69.07-1.38.06-2.08-.28-13.68-11.12-23.82-24.21-22.65s-23.48,13.2-23.21,26.88c0,.71.07,1.41.14,2.1a135.33,135.33,0,0,0-19.29,7.16c-.3-.61-.61-1.21-1-1.8-6.79-11.26-21.37-14-32.57-6.18s-14.78,23.34-8,34.6c.35.58.73,1.12,1.11,1.65a146.17,146.17,0,0,0-13.9,16.13,19.06,19.06,0,0,0-1.71-1c-11.47-5.83-25.89-.48-32.2,11.95s-2.12,27.22,9.35,33.05c.6.3,1.21.55,1.81.8a144.49,144.49,0,0,0-4.81,20.73c-.66,0-1.32,0-2,.08-13.1,1.16-23.49,13.19-23.21,26.87s11.11,23.81,24.2,22.65c.69-.06,1.36-.17,2-.29a132.63,132.63,0,0,0,5.6,19.8c-.6.36-1.2.72-1.79,1.13-11.2,7.85-14.78,23.34-8,34.6s21.36,14,32.56,6.18c.58-.41,1.12-.84,1.65-1.28A118.33,118.33,0,0,0,1953,741.06c-.37.6-.73,1.22-1.06,1.86-6.31,12.43-2.12,27.22,9.36,33.05s25.89.48,32.2-12c.33-.64.61-1.3.88-1.95a117.45,117.45,0,0,0,19.52,3.72c0,.7-.07,1.39-.06,2.09.28,13.67,11.11,23.81,24.21,22.65s23.48-13.2,23.21-26.88c0-.71-.08-1.41-.15-2.11a132.64,132.64,0,0,0,19.3-7.16c.3.61.61,1.22,1,1.81,6.78,11.26,21.36,14,32.57,6.17s14.78-23.33,8-34.59c-.35-.58-.73-1.12-1.12-1.65a145.11,145.11,0,0,0,13.9-16.13C2135.24,710.34,2135.8,710.68,2136.39,711Zm-143.06,1.82c-41.67-21.16-56.88-74.88-34-120s75.26-64.54,116.93-43.39,56.87,74.88,34,120S2035,734,1993.33,712.8Z"/><path class="cls-13" d="M1817.05,475.1c22.48,11.41,50.72.93,63.08-23.41s4.16-53.33-18.33-64.74c-1.16-.59-2.35-1.09-3.54-1.56a285.87,285.87,0,0,0,9.44-40.63c1.29,0,2.58,0,3.89-.14,25.65-2.29,46-25.86,45.47-52.64s-21.76-46.66-47.41-44.37c-1.34.12-2.66.33-4,.56a261.8,261.8,0,0,0-11-38.79c1.18-.69,2.35-1.4,3.5-2.21,21.94-15.37,29-45.71,15.67-67.77s-41.85-27.47-63.8-12.1c-1.12.79-2.18,1.64-3.22,2.5a232.07,232.07,0,0,0-28.46-26.56c.72-1.18,1.43-2.39,2.07-3.65,12.36-24.34,28.51-50.93,5.85-62-52.41-25.59-74.9-3.68-87.26,20.66-.64,1.26-1.19,2.54-1.72,3.82a232.52,232.52,0,0,0-38.24-7.3c.08-1.35.14-2.7.11-4.08-.53-26.79,7.42-41.28-18.33-41.78-56.14-1.09-75.08,23.27-74.55,50.06,0,1.4.15,2.77.29,4.13a261.75,261.75,0,0,0-37.8,14c-.59-1.2-1.19-2.39-1.89-3.54-13.29-22-41.85-27.47-63.79-12.1s-29,45.72-15.67,67.78c.68,1.13,1.42,2.18,2.18,3.22a285.13,285.13,0,0,0-27.23,31.6c-1.09-.69-2.19-1.35-3.35-1.94-22.48-11.42-50.73-.94-63.09,23.41s-4.15,53.32,18.33,64.74c1.17.59,2.36,1.09,3.55,1.56a284.5,284.5,0,0,0-9.44,40.63c-1.29,0-2.58,0-3.9.14-25.64,2.28-46,25.85-45.46,52.64s21.76,46.65,47.41,44.36c1.34-.11,2.66-.33,4-.56a260.72,260.72,0,0,0,11,38.8c-1.18.69-2.36,1.4-3.5,2.2-22,15.38-29,45.72-15.67,67.77s57.28,32.31,79.23,16.93c1.12-.78-13.26-6.46-12.21-7.33A232.2,232.2,0,0,0,1457.72,534c-.73,1.18-1.43,2.38-2.07,3.64C1443.29,562,1451.49,591,1474,602.41s50.73.93,63.09-23.41c.64-1.26,1.19-2.54,1.72-3.83a231.48,231.48,0,0,0,38.24,7.3c-.08,1.36-.15,2.71-.12,4.08.54,26.79,21.77,46.65,47.42,44.37s46-25.86,45.46-52.65c0-1.39-.14-2.76-.28-4.12a261.75,261.75,0,0,0,37.8-14c.58,1.19,1.19,2.38,1.88,3.53,13.29,22.06,41.86,27.48,63.8,12.1s29-45.71,15.67-67.77c-.68-1.13-1.43-2.19-2.18-3.23a286,286,0,0,0,27.22-31.59C1814.78,473.84,1815.88,474.51,1817.05,475.1Zm-280.25,3.56c-81.62-41.45-111.41-146.69-66.54-235.07s147.42-126.43,229-85,111.42,146.68,66.54,235.06S1618.43,520.1,1536.8,478.66Z"/><path class="cls-14" d="M1871.59,344.62c25.65-2.29,46-25.86,45.47-52.64s-21.76-46.66-47.41-44.37c-1.34.12-2.66.33-4,.56a261.8,261.8,0,0,0-11-38.79c1.18-.69,2.35-1.4,3.5-2.21,21.94-15.37,49.09-52.52,33.61-73.09-29.38-39.05-59.79-22.15-81.74-6.78-1.12.79-2.18,1.64-3.22,2.5a232.07,232.07,0,0,0-28.46-26.56c.72-1.19,1.43-2.39,2.07-3.65a51.06,51.06,0,0,0,2.88-40.27q-31.8,56-62.64,112.43c65.11,47.72,85.85,141.75,45.14,221.92-34.49,67.93-103,106.07-170,101.29-3,7.75-5.92,15.54-9.12,23.21-8.68,20.81-18.54,41.2-28.41,61.56q9.32,1.75,18.7,2.74c-.08,1.36-.15,2.71-.12,4.08.54,26.79,16.8,49.55,63.29,47.09,25.71-1.37,30.13-28.58,29.59-55.37,0-1.39-.14-2.76-.28-4.12a261.75,261.75,0,0,0,37.8-14c.58,1.19,1.19,2.38,1.89,3.53,13.28,22.06,59.39,31.43,81.33,16.06s11.42-49.67-1.87-71.73c-.68-1.13-1.43-2.19-2.18-3.23a286,286,0,0,0,27.22-31.59c1.09.68,2.19,1.35,3.36,1.94,22.48,11.41,50.72.93,63.08-23.41s4.16-53.33-18.33-64.74c-1.16-.59-2.35-1.09-3.54-1.56a285.87,285.87,0,0,0,9.44-40.63C1869,344.76,1870.28,344.74,1871.59,344.62Z"/><path class="cls-15" d="M1841.23,477.85c22.48,11.41,50.72.93,63.08-23.41s4.15-53.33-18.33-64.74c-1.16-.59-2.35-1.09-3.54-1.56a287.24,287.24,0,0,0,9.44-40.63c1.28,0,2.58,0,3.89-.14,25.65-2.29,46-25.86,45.47-52.64s-21.77-46.66-47.41-44.37c-1.34.12-2.66.33-4,.56a261.8,261.8,0,0,0-11-38.79c1.18-.69,2.35-1.4,3.5-2.21,21.94-15.37,29-45.71,15.67-67.77s-41.85-27.47-63.8-12.1c-1.12.79-2.18,1.64-3.22,2.5A232.07,232.07,0,0,0,1802.57,106c.72-1.19,1.43-2.39,2.07-3.65C1817,78,1808.79,49,1786.31,37.6s-50.72-.93-63.08,23.41c-.64,1.26-1.19,2.54-1.72,3.82a232.52,232.52,0,0,0-38.24-7.3c.08-1.35.14-2.71.11-4.08-.53-26.79-21.76-46.65-47.41-44.36s-46,25.85-45.47,52.64c0,1.4.15,2.77.29,4.13a261.31,261.31,0,0,0-37.8,14c-.59-1.2-1.19-2.39-1.89-3.54-13.29-22-41.85-27.47-63.79-12.1s-29,45.72-15.67,67.78c.68,1.13,1.42,2.18,2.18,3.22a285.13,285.13,0,0,0-27.23,31.6c-1.09-.69-2.19-1.35-3.35-1.94-22.48-11.42-50.73-.94-63.09,23.4s-4.15,53.33,18.33,64.75c1.17.59,2.35,1.09,3.55,1.56a284.37,284.37,0,0,0-9.44,40.62c-1.29,0-2.58,0-3.9.15-25.64,2.28-46,25.85-45.46,52.64s21.76,46.65,47.41,44.36c1.34-.11,2.66-.33,4-.56a262,262,0,0,0,11,38.8c-1.18.69-2.36,1.4-3.5,2.2-21.95,15.38-29,45.72-15.67,67.77s41.85,27.48,63.79,12.1c1.13-.78,2.18-1.63,3.23-2.5a232.2,232.2,0,0,0,28.46,26.57c-.73,1.18-1.43,2.38-2.08,3.64-12.35,24.35-4.15,53.33,18.33,64.75s50.73.93,63.09-23.41c.64-1.26,1.19-2.54,1.72-3.83a231.48,231.48,0,0,0,38.24,7.3c-.08,1.35-.15,2.71-.12,4.08.54,26.79,21.77,46.65,47.41,44.37s46-25.86,45.47-52.65c0-1.4-.14-2.76-.28-4.12a262.19,262.19,0,0,0,37.8-14c.58,1.19,1.19,2.38,1.88,3.53,13.29,22.06,41.86,27.48,63.8,12.1s29-45.71,15.67-67.77c-.68-1.13-1.43-2.19-2.19-3.23a285,285,0,0,0,27.23-31.59C1839,476.59,1840.06,477.26,1841.23,477.85ZM1561,481.41c-81.62-41.45-111.41-146.69-66.54-235.07s147.42-126.43,229-85S1834.9,308,1790,396.41,1642.61,522.85,1561,481.41Z"/><path class="cls-16" d="M2729,2421.87l-2663.76-23V2467c0,18.49,11.62,34.22,27.35,37l753.24,134.16a104.17,104.17,0,0,0,27,1.25l1827.21-153c16.31-1.37,28.94-17.14,28.94-36.14Z"/><path class="cls-16" d="M1794,1118.17V2257.88a58.91,58.91,0,0,1-13.61,37.74c-8.13,9.75-19.32,16.16-31.68,17.09L524.75,2403,68.39,2436.76h-.07l-3.09.06-9.92.6C25,2439.65,0,2415.86,0,2384.39V1123.63c0-31.47,25.39-57.79,55.69-57.79h1693C1773.69,1065.84,1794,1089.72,1794,1118.17Z"/><path class="cls-8" d="M1821.12,1118.17V2257.88c0,22-12.19,41.57-29.17,50.21l-.81.37a43.63,43.63,0,0,1-5,2.09l-1.15.41-.9.24a42.38,42.38,0,0,1-8.37,1.51l-8.58.56L548.92,2402.91h-.07L82.66,2437.28a50.19,50.19,0,0,1-13.07-.48,6.88,6.88,0,0,0-1.2,0h-.07a14.12,14.12,0,0,1-3.43-.93c-21.75-5.94-37.81-26.29-37.81-51.44V1123.63c0-31.47,25.32-57.79,55.62-57.79h1693C1800.69,1065.84,1821.12,1089.72,1821.12,1118.17Z"/><path class="cls-17" d="M1723,2232.34,146.09,2340.6c-24.65,1.69-44.69-17.76-44.69-43.45V1193.36c0-25.69,20-46.6,44.69-46.71l1576.89-6.8c20.59-.09,37.24,18.81,37.24,42.21V2187.42C1760.22,2210.82,1743.57,2230.93,1723,2232.34Z"/><path class="cls-8" d="M989,1101.14c0,11.71-8.71,21.24-19.47,21.27S950,1113,950,1101.21s8.75-21.26,19.52-21.27S989,1089.42,989,1101.14Z"/><path class="cls-18" d="M82.68,2437.33l1684.47-124,8.57-.63c11.45-.84,21.86-6.5,29.82-15.09C1684.32,2291,1609,2248,1560.46,2203.5c-97.53-89.26-80.61-177.28-185.79-236-131.19-73.2-234.34,19.55-333.89-72-60.35-55.49-30.72-96.86-105-179.78-82.25-91.83-135.8-61-218.46-143.61-104.52-104.51-52.25-185.82-142.28-260.85-109.22-91-227-6.78-331-94.07-44.84-37.65-69.45-92.39-82.29-150.61H82.68c-30.29,0-54.93,25.51-54.93,57V2384.39C27.75,2415.86,52.38,2439.55,82.68,2437.33Z"/><path class="cls-19" d="M1855.49,2305.78,65.23,2437l780.59,139a103.73,103.73,0,0,0,27,1.26L2729,2421.87l-845-115.2A137,137,0,0,0,1855.49,2305.78Z"/><polygon class="cls-17" points="326.46 2438.09 1816.9 2327.25 2278.18 2389.63 800.58 2508.12 326.46 2438.09"/><path class="cls-20" d="M1685.72,1065.84v1138a102,102,0,0,1-5.15,30.48,107.22,107.22,0,0,1-20.92,37.3c-17.84,20.93-43.69,35.17-72.52,37.36L361.28,2401.51,289,2407a115.52,115.52,0,0,1-48.74-6.48c-29.72-10.82-51.83-33.77-60.65-63.08-2.68-8.74-3.58-18-3.58-27.79V1065.84Z"/><path class="cls-21" d="M1614.61,373,316.1,333C253.17,331,201.86,376.88,201.86,435.4V2285.61c0,58.53,51.31,102.1,114.24,97.35l1298.51-98c54.39-4.1,98.25-51.16,98.25-105.12V473.71C1712.86,419.74,1669,374.64,1614.61,373Z"/><path class="cls-22" d="M238.48,2294.06V425.32c0-33.68,29.51-60.13,65.79-59.07l1320.62,38.38c31.36.92,56.71,26.92,56.71,58.09V2192.23c0,31.18-25.34,58.31-56.71,60.62L304.27,2350.19C268,2352.87,238.48,2327.74,238.48,2294.06Z"/><path class="cls-23" d="M1614.61,373,316.1,333C253.17,331,201.86,376.88,201.86,435.4v76l1511,32.39V473.71C1712.86,419.74,1669,374.64,1614.61,373Z"/><path class="cls-8" d="M404.71,430.38c0,19-16.51,33.92-36.9,33.43s-37-16.31-37-35.34,16.6-34,37-33.43S404.71,411.43,404.71,430.38Z"/><path class="cls-8" d="M533.18,433.71c0,18.83-16.28,33.7-36.4,33.21s-36.55-16.2-36.55-35.1,16.38-33.76,36.55-33.21S533.18,414.88,533.18,433.71Z"/><path class="cls-8" d="M660,437c0,18.7-16.07,33.48-35.93,33S588,453.9,588,435.13s16.16-33.55,36.06-33S660,418.29,660,437Z"/><path class="cls-8" d="M939.72,897.83,405.26,897c-8.71,0-15.78-6.5-15.78-14.49v-34c0-8,7.07-14.42,15.78-14.37l534.46,3c8.12,0,14.69,6.33,14.69,14v32.78C954.41,891.62,947.84,897.85,939.72,897.83Z"/><path class="cls-8" d="M426,909.8l45.95,168.51c2.9,10.65,13.32,18,25.25,17.89l355.79-4c11.37-.12,21.27-7.53,24-18l43.33-164.05Zm131.89,158.63c0,6.68-5.86,12.16-13.09,12.24l-12.49.12c-7.24.08-13.13-5.29-13.13-12V938.19c0-6.71,5.89-12.14,13.13-12.14h12.49c7.23,0,13.09,5.42,13.09,12.11Zm69.44-.66c0,6.65-5.81,12.11-13,12.18l-12.38.13c-7.18.07-13-5.28-13-11.95v-130c0-6.67,5.83-12.08,13-12.08h12.38c7.16,0,13,5.39,13,12Zm68.81-.66c0,6.63-5.75,12.06-12.85,12.13l-12.27.13c-7.12.07-12.9-5.25-12.9-11.89V938c0-6.64,5.78-12,12.9-12h12.27c7.1,0,12.85,5.36,12.85,12Zm68.21-.64c0,6.59-5.71,12-12.75,12.07l-12.15.13c-7.06.07-12.79-5.23-12.79-11.84V938c0-6.62,5.73-12,12.79-12h12.15c7,0,12.75,5.34,12.75,11.94Zm67.6-.64c0,6.56-5.66,12-12.63,12l-12,.12c-7,.07-12.67-5.21-12.67-11.79V937.9c0-6.59,5.67-11.93,12.67-11.93h12c7,0,12.63,5.32,12.63,11.89Z"/><path class="cls-17" d="M486,817.42a20.73,20.73,0,0,1-27.54-1.93,17,17,0,0,1,1.9-25.36,20.74,20.74,0,0,1,27.53,2A17,17,0,0,1,486,817.42Z"/><path class="cls-8" d="M657.55,657.3c-2.68-2.9-8.22-2.59-12.37.71L476,792.39c-4.25,3.38-5.47,8.48-2.73,11.4s8.4,2.54,12.65-.83l169-134.42C659,665.24,660.22,660.21,657.55,657.3Z"/><path class="cls-17" d="M863.61,820a19.26,19.26,0,0,0,26.13-1.52A16.86,16.86,0,0,0,888,793.75a19.25,19.25,0,0,0-26.13,1.47A16.88,16.88,0,0,0,863.61,820Z"/><path class="cls-8" d="M696.7,658c2.66-2.81,8.16-2.31,12.28,1.12L873.2,795.7c4,3.35,5.19,8.34,2.59,11.14s-8,2.36-12-1L699.35,669.27C695.22,665.84,694,660.79,696.7,658Z"/><polygon class="cls-8" points="1562.05 737.16 1010.92 730.13 1010.92 661.52 1562.05 671.08 1562.05 737.16"/><polygon class="cls-8" points="1562.05 852.85 1010.92 850.23 1010.92 781.63 1562.05 786.77 1562.05 852.85"/><polygon class="cls-8" points="1562.05 968.54 1010.92 970.33 1010.92 901.73 1562.05 902.46 1562.05 968.54"/><polygon class="cls-8" points="1562.05 1084.24 1010.92 1090.43 1010.92 1021.83 1562.05 1018.16 1562.05 1084.24"/><path class="cls-24" d="M1487.09,1669.06c0,277.53-223.63,517.46-500.34,536-277.66,18.56-503.44-192.72-503.44-472s225.78-519.31,503.44-536.15C1263.46,1180.12,1487.09,1391.54,1487.09,1669.06Z"/><path class="cls-8" d="M1017.48,1219.66c120.86,0,233.23,46,316.41,129.39,83.51,83.78,129.5,197.43,129.5,320,0,128.25-49.73,252.17-140,349s-210.44,154.83-338.19,163.37c-10.75.71-21.61,1.08-32.28,1.08-120.78,0-233.09-45.87-316.24-129.17C553,1969.55,507,1855.82,507,1733.05c0-266.5,215.86-496.4,481.18-512.5,9.73-.59,19.58-.89,29.29-.89Zm0-23.69q-15.23,0-30.7.93c-277.66,16.84-503.44,256.91-503.44,536.15,0,267.81,207.65,473.1,469.58,473.1q16.79,0,33.86-1.13c276.71-18.5,500.34-258.43,500.34-536,0-267.19-207.26-473.11-469.64-473.09Z"/><path class="cls-8" d="M1201.09,1967.37a48.71,48.71,0,0,1-40.82-14.34l-393.44-396.6c-25.81-26-25.81-70.1,0-98.08,25.61-27.75,66.69-28.84,91.78-2.8l382.77,397.35c22,22.87,22,63.43,0,90.95C1230.31,1957.68,1215.73,1965.66,1201.09,1967.37Z"/><path class="cls-8" d="M813,2012.51c-16.65,1.94-33.38-2.87-46.21-14.93-25.81-24.27-25.81-68.36,0-98.08l393.44-453.16c22.61-26,58.92-27,81.11-2.48,22,24.35,22,64.92,0,90.94L858.61,1987.18C846.09,2002,829.61,2010.58,813,2012.51Z"/><path class="cls-25" d="M1914.77,1343.65c-32.69-34.9,57.8-166,106.24-223.47,42.31-50.19,85.8-101.78,139.2-95.24,46.89,5.73,92.52,55.18,95.25,102.57C2262.82,1255,1961.24,1393.26,1914.77,1343.65Z"/><path class="cls-26" d="M2307.24,2691c6.16,5,7.29,17.49,8,25.65.33,3.65.49,5.47.08,6.76-3,9.4-21.19,10.39-49.77,13.31-45.16,4.61-58.6,8.16-62.13,1.45-3.31-6.3,4.7-16.61,5.6-17.75,4.86-6.11,10.81-8.34,22.33-12.13,21.3-7,35.7-10.85,40.06-12C2298.65,2689,2303.2,2687.68,2307.24,2691Z"/><path class="cls-27" d="M2280.39,2649.71l-4.52,51.46c1.28,2.49,16.58,9.94,28.73,3.55l11.61-50.59Z"/><path class="cls-28" d="M1949.1,2684.35c7.37,8.15,9.05,23.14,2.64,30.53s-15.78,1.82-42.66,2.62c-28.8.86-36.32,7.66-55.89,2.26-7.9-2.18-21.86-7.48-21.6-13.13.19-4,7.3-6,31-14,33.7-11.29,33.55-11.91,40.7-13.09C1921.31,2676.59,1939.36,2673.6,1949.1,2684.35Z"/><path class="cls-29" d="M1930.65,2637.39l-14.44,48c1.09,2.58,15.77,11.17,28.37,5.73l21.45-46.63Z"/><path class="cls-30" d="M2059,1585.21a4500,4500,0,0,1-39.52,540.22,4501.16,4501.16,0,0,1-102.68,525.94l55.28,14.88c46.75-43.59,105.72-112.21,134.18-209.18,17.66-60.19,11.77-91.12,23-165.15,17.84-117.86,54-179.62,91.32-274.66,33.55-85.42,73.22-210.76,94.49-378.32Z"/><path class="cls-31" d="M2225.3,1569.8q16.92,308,27.59,627.38,7.91,239.61,11.72,473.09l56.47,7a657.45,657.45,0,0,0,58.89-152c20.1-80.59,15.45-128.45,24.26-212,9.89-93.68,24.26-114.09,49.7-232.27,51.65-239.83,77.48-359.75,19.86-434.34C2455.09,1622.45,2396.46,1561.7,2225.3,1569.8Z"/><path class="cls-32" d="M2499.63,1053.72a877,877,0,0,0-187.8-31.37c-112.85-6.37-169.27-9.56-209.25,17.31-92.35,62.06-20.85,205.31-58.65,560.41-5.4,50.71-6.61,101.78-10.52,152.63-6.48,84.19-8,88.76-2.09,97.29,36.73,53.5,173.78-27.19,374.66,4.7,112.39,17.85,163.36,59,194.15,29.31,35.91-34.59,5.11-127.61-21.4-207.68-30.44-91.92-49.24-93.1-66.52-162.32-18.05-72.36-7.13-109.61-4.32-223.71A2020.08,2020.08,0,0,0,2499.63,1053.72Z"/><g class="cls-33"><path class="cls-34" d="M2226.47,1720.37c52.5-4.11,86.56,25.57,131.88,2.44,62.15-31.72,82.11-130.41,78.15-200.27-6-106.12-66.61-134.1-56.17-202.7,5.65-37.1,32.14-86.36,127.24-136.68,1.27,42.35,1,78.45.32,107.13-2.81,114.1-13.73,151.35,4.32,223.71,17.28,69.22,36.08,70.4,66.52,162.32,26.51,80.07,57.31,173.09,21.4,207.68-30.79,29.65-81.76-11.46-194.15-29.31-173.09-27.48-298.72,28.55-353.68,10.38C2118.72,1755.31,2179,1724.09,2226.47,1720.37Z"/></g><path class="cls-35" d="M2428,1061c37.5-30.81,112.9,4.07,133,13.39,112.39,52,213.3,192.08,188.3,340.13-3.75,22.2-21.14,126.06-109.08,176.38-79.35,45.4-186.49,33.73-272.34-30.58l-35.2-31.23-34.63-37.43a278.11,278.11,0,0,1,92.27-50.83c57.08-18.42,98.64,14.63,125.12-10.5,18.28-17.34,18.32-48,13.81-66.53-9.1-37.41-42.08-47.94-69.61-74.49C2395,1226.92,2383.12,1097.89,2428,1061Z"/><polygon class="cls-36" points="1889.15 1544.32 2391.75 1536.82 2258.1 1601.32 1887.87 1577.09 1889.15 1544.32"/><path class="cls-37" d="M2409.48,1550.17h0a22.35,22.35,0,0,1-14.72,21l-160.6,63-.73-43.64,158.32-53.7A13.9,13.9,0,0,1,2409.48,1550.17Z"/><path class="cls-38" d="M2332.09,1520.43c3.09-.69-15-36.77-29.24-32.61s-83.76,44.47-90.08,61.06l-6.32,16.6s30.33,2.37,49.14-4S2307,1526,2332.09,1520.43Z"/><path class="cls-39" d="M2220.1,1284.25l35.43,322.57c1.22,11.13-14.36,27.71-25.55,27.18l-519.71-31.9a18.21,18.21,0,0,1-17.09-15.12L1628,1275.44c-2-11.34,18.43-23,29.93-22.73L2202.5,1268A18.22,18.22,0,0,1,2220.1,1284.25Z"/><path class="cls-40" d="M2208.22,1293.66l35.43,322.57a18.23,18.23,0,0,1-19,20.19l-526.29-24.92a18.2,18.2,0,0,1-17.09-15.11l-53.77-313a18.22,18.22,0,0,1,18.47-21.3l544.62,15.31A18.23,18.23,0,0,1,2208.22,1293.66Z"/><path class="cls-41" d="M1899.19,1535.92c46-19.48,29.73-56.62,84-102.9,71.58-61.06,144.55-34.58,170.1-81.9,7.95-14.74,11.75-37.67-2.11-74.79l39.44,1.1a18.23,18.23,0,0,1,17.6,16.23l35.43,322.57a18.23,18.23,0,0,1-19,20.19l-526.29-24.92a18.2,18.2,0,0,1-17.09-15.11l-7.42-43.19a198.54,198.54,0,0,1,57.31-21.48C1808.4,1516.06,1846.28,1558.34,1899.19,1535.92Z"/><path class="cls-42" d="M1665.24,1566.38a4.1,4.1,0,0,1,3.69-5.41c11.12-.57,36.92-.8,51.16,7.92,18.5,11.34,42.42,32,22.28,42.45l-18.81,9.74a4,4,0,0,1-2.76.38c-6.68-1.47-34.81-7.71-37.89-9.26C1680.11,1610.79,1669.38,1579,1665.24,1566.38Z"/><path class="cls-43" d="M2303.4,899.07a391.08,391.08,0,0,0,7,78.15c4,20.82,7,26.2,10.68,30.56,5.6,6.57,14.08,12.08,62,24,26.09,6.47,29.45,6.29,30,8.88,2.81,12.63-68.32,55.67-141.81,45.29-45-6.34-85.9-32-83.39-45.48s47.45-6.28,60.84-30.82c9.32-17.07-1.12-41.3-13.46-61.36C2247.23,925.86,2291.45,921.46,2303.4,899.07Z"/><path class="cls-44" d="M2219.92,912.29c-10.61-14.1-11.27-38.71,1-54.28,10.53-13.39,27.09-15.29,37-16.44,28.73-3.32,65,8.68,77.6,35.12,7.47,15.68-8.69,48.24-11.23,54.09-2.86,6.62-8.06,8.89-12.87,13.9-6.66,6.94-17.09,18-34.11,36.44a119.5,119.5,0,0,0-6.53-19.5c-1.23-2.81-6.17-13.8-13.65-22.91C2242.13,920.45,2230,925.66,2219.92,912.29Z"/><path class="cls-45" d="M2301.56,965.6s-18.89,31-56.5,28.54c-33.67-2.19-38.61-77.71-17.1-93.73,7.18-5.35,21.55-7.57,33.23-4.3,6.91,1.94,9.24,4.81,20.58,7.75,10.46,2.71,13.41,1.55,16.57,4.21,3.95,3.32,6.84,11.47.25,33.54,6.42-6.5,14.13-9,19.6-6.42a11.58,11.58,0,0,1,4.48,4.37C2327.38,948.19,2319.5,959.2,2301.56,965.6Z"/><path class="cls-46" d="M2299.86,903.55c-1.62,1.21,3.35,7.27,3.71,15.85.73,16.64-16.12,36.62-33.31,38.32-10.16,1-13-5.13-29.76-6.9a76.91,76.91,0,0,0-24.5,1.41c-5.28,18.26-.31,36.46,11.89,44.9,13.14,9.1,29.92,3.58,36.94,1.27,4.69-1.54,19.73-6.45,27.59-20.24,8.19-14.38.15-23,9.55-32.76,4.74-4.91,11-7,17-16.52a46,46,0,0,0,3.42-6.4C2313.72,913.28,2302.22,901.8,2299.86,903.55Z"/><path class="cls-47" d="M2228.22,959s7.28,3.8,19.84,3.09c.61,0,1.29.15,1.37.46.29,1.2-7.78,6.54-15.21,4.45-5.27-1.48-9.37-6.47-8.67-7.74C2225.86,958.72,2227.05,958.79,2228.22,959Z"/></g></g></g></svg>