<svg xmlns="http://www.w3.org/2000/svg" width="12" height="10.494" viewBox="0 0 12 10.494">
  <g id="Group_3181" data-name="Group 3181" transform="translate(-1293.497 -618.253)">
    <path id="Icon_ionic-ios-arrow-forward" data-name="Icon ionic-ios-arrow-forward" d="M15.438,11.441,11.467,7.473a.747.747,0,0,1,0-1.059.756.756,0,0,1,1.062,0l4.5,4.5a.749.749,0,0,1,.022,1.034l-4.518,4.527a.75.75,0,0,1-1.062-1.059Z" transform="translate(1282.251 612.057)" fill="#2196f3"/>
    <path id="Icon_ionic-ios-arrow-forward-2" data-name="Icon ionic-ios-arrow-forward" d="M15.438,11.441,11.467,7.473a.747.747,0,0,1,0-1.059.756.756,0,0,1,1.062,0l4.5,4.5a.749.749,0,0,1,.022,1.034l-4.518,4.527a.75.75,0,0,1-1.062-1.059Z" transform="translate(1288.251 612.057)" fill="#2196f3"/>
  </g>
</svg>
