<svg xmlns="http://www.w3.org/2000/svg" width="25" height="28.008" viewBox="0 0 25 28.008">
  <g id="_7992_Converted_-02" data-name="7992 [Converted]-02" transform="translate(-0.12)">
    <path id="Path_9254" data-name="Path 9254" d="M12.294,6.468a1.154,1.154,0,0,0,1.154-1.154V1.154a1.154,1.154,0,1,0-2.309,0V5.313A1.154,1.154,0,0,0,12.294,6.468Zm-.459-5.313a.466.466,0,0,1,.925,0V5.313a.466.466,0,0,1-.925,0Z" transform="translate(-3.185)" fill="#fff"/>
    <path id="Path_9255" data-name="Path 9255" d="M11.14,21.739a1.154,1.154,0,0,0,2.309,0V17.594a1.154,1.154,0,0,0-2.309,0Zm.7-4.144a.466.466,0,0,1,.925,0v4.144a.466.466,0,1,1-.925,0Z" transform="translate(-3.185 -4.833)" fill="#fff"/>
    <path id="Path_9256" data-name="Path 9256" d="M19.063,3.225a1.132,1.132,0,0,0-.814.34l-2.96,2.96A1.132,1.132,0,0,0,15,7.317a1.154,1.154,0,0,0,1.968.821l2.96-2.96a1.154,1.154,0,0,0-.821-1.968ZM15.8,7.665a.437.437,0,0,1-.133-.326.459.459,0,0,1,.133-.326l2.96-2.96a.459.459,0,0,1,.659,0,.466.466,0,0,1,0,.651l-2.96,2.96a.466.466,0,0,1-.659-.022Z" transform="translate(-4.362 -0.835)" fill="#fff"/>
    <path id="Path_9257" data-name="Path 9257" d="M8.56,15.995a1.117,1.117,0,0,0-.326-.814,1.147,1.147,0,0,0-1.628,0l-2.96,2.96a1.154,1.154,0,1,0,1.628,1.613l2.96-2.96a1.147,1.147,0,0,0,.326-.8Zm-.829.326-2.96,2.96a.481.481,0,0,1-.651,0,.459.459,0,0,1,0-.659l2.96-2.96a.466.466,0,0,1,.651,0,.444.444,0,0,1,0,.651Z" transform="translate(-0.803 -4.34)" fill="#fff"/>
    <path id="Path_9258" data-name="Path 9258" d="M16.54,12.174a1.154,1.154,0,0,0,1.154,1.154h4.159a1.154,1.154,0,0,0,0-2.309H17.694A1.154,1.154,0,0,0,16.54,12.174Zm5.78,0a.466.466,0,0,1-.466.466H17.694a.466.466,0,0,1,0-.925h4.159a.466.466,0,0,1,.466.459Z" transform="translate(-4.847 -3.182)" fill="#fff"/>
    <path id="Path_9259" data-name="Path 9259" d="M1.274,13.324H5.433a1.162,1.162,0,0,0,0-2.324H1.274a1.154,1.154,0,1,0,0,2.309Zm0-1.613H5.433a.466.466,0,0,1,0,.925H1.274a.466.466,0,0,1,0-.925Z" transform="translate(0 -3.176)" fill="#fff"/>
    <path id="Path_9260" data-name="Path 9260" d="M6.626,8.136A1.159,1.159,0,0,0,8.269,6.5l-2.96-2.96A1.154,1.154,0,0,0,3.673,5.169ZM4.176,4.051a.444.444,0,0,1,.651,0l2.96,2.96a.466.466,0,0,1,.141.326.444.444,0,0,1-.141.326.466.466,0,0,1-.651,0L4.176,4.7a.444.444,0,0,1,0-.651Z" transform="translate(-0.837 -0.832)" fill="#fff"/>
    <path id="Path_9261" data-name="Path 9261" d="M29.974,21.45a.429.429,0,0,0-.274-.37L16.173,15.227a.463.463,0,0,0-.644.481l1.828,14.623a.474.474,0,0,0,.274.37.481.481,0,0,0,.459-.059L21.479,28.1l3.574,4.714a.459.459,0,0,0,.37.185.488.488,0,0,0,.281-.089l4.159-3.13a.5.5,0,0,0,.185-.3.466.466,0,0,0-.111-.363l-3.552-4.721,3.389-2.546A.451.451,0,0,0,29.974,21.45ZM25.5,23.929a.459.459,0,0,0-.178.3.488.488,0,0,0,.089.348L28.953,29.3,25.5,31.892l-3.552-4.721a.466.466,0,0,0-.37-.185.429.429,0,0,0-.274.1l-3.123,2.346L16.55,16.4l12.055,5.18Z" transform="translate(-4.932 -4.987)" fill="#fff"/>
  </g>
</svg>
