<svg xmlns="http://www.w3.org/2000/svg" width="13" height="12.35" viewBox="0 0 13 12.35">
  <path id="Icon_material-card-travel" data-name="Icon material-card-travel" d="M14.7,5.6H12.75V4.3A1.3,1.3,0,0,0,11.45,3H7.55a1.3,1.3,0,0,0-1.3,1.3V5.6H4.3A1.3,1.3,0,0,0,3,6.9v7.15a1.3,1.3,0,0,0,1.3,1.3H14.7a1.3,1.3,0,0,0,1.3-1.3V6.9A1.3,1.3,0,0,0,14.7,5.6ZM7.55,4.3h3.9V5.6H7.55Zm7.15,9.75H4.3v-1.3H14.7Zm0-3.25H4.3V6.9H6.25V8.2h1.3V6.9h3.9V8.2h1.3V6.9H14.7Z" transform="translate(-3 -3)" fill="#2196f3"/>
</svg>
