<svg xmlns="http://www.w3.org/2000/svg" width="13" height="14.857" viewBox="0 0 13 14.857">
  <path id="trash-alt-regular_1_" data-name="trash-alt-regular (1)" d="M7.777,12.071h.7a.348.348,0,0,0,.348-.348V5.455a.348.348,0,0,0-.348-.348h-.7a.348.348,0,0,0-.348.348v6.268A.348.348,0,0,0,7.777,12.071Zm4.759-9.75H10.144L9.158.676A1.393,1.393,0,0,0,7.963,0H5.037A1.393,1.393,0,0,0,3.843.676L2.856,2.321H.464A.464.464,0,0,0,0,2.786V3.25a.464.464,0,0,0,.464.464H.929v9.75a1.393,1.393,0,0,0,1.393,1.393h8.357a1.393,1.393,0,0,0,1.393-1.393V3.714h.464A.464.464,0,0,0,13,3.25V2.786A.464.464,0,0,0,12.536,2.321ZM4.986,1.477a.174.174,0,0,1,.15-.084H7.864a.174.174,0,0,1,.149.084l.507.844H4.48Zm5.692,11.987H2.321V3.714h8.357ZM4.527,12.071h.7a.348.348,0,0,0,.348-.348V5.455a.348.348,0,0,0-.348-.348h-.7a.348.348,0,0,0-.348.348v6.268A.348.348,0,0,0,4.527,12.071Z" fill="#f80d0d"/>
</svg>
