<svg xmlns="http://www.w3.org/2000/svg" width="25" height="22.743" viewBox="0 0 25 22.743">
  <g id="invite-01" transform="translate(0.004 -0.102)">
    <path id="Path_9262" data-name="Path 9262" d="M10.278,9.743H20.323a.349.349,0,0,0,.342-.342.342.342,0,0,0-.342-.4H10.278a.342.342,0,0,0-.349.342.349.349,0,0,0,.349.4Z" transform="translate(-2.958 -2.507)" fill="#fff"/>
    <path id="Path_9263" data-name="Path 9263" d="M20.666,13.442a.349.349,0,0,0-.342-.342H10.279a.349.349,0,0,0-.349.342.342.342,0,0,0,.349.342H20.325A.342.342,0,0,0,20.666,13.442Z" transform="translate(-2.96 -3.661)" fill="#fff"/>
    <path id="Path_9264" data-name="Path 9264" d="M24.785,8.959l-4.1-3V5.242a2.689,2.689,0,0,0-2.711-2.625h-1.87L12.791.194a.518.518,0,0,0-.59,0L8.887,2.617H7.039A2.682,2.682,0,0,0,4.313,5.242v.719L.2,8.959a.518.518,0,0,0-.2.417s0,.058,0,.086V21.924a.489.489,0,0,0,.05.2.5.5,0,0,0,.446.719h24a.5.5,0,0,0,.446-.719.489.489,0,0,0,.05-.2V9.362A.5.5,0,0,0,24.785,8.959Zm-4.1-1.74,2.977,2.157-2.876,2.208-.1.079Zm-8.19-6,1.92,1.438h-3.84ZM5.306,5.242A1.683,1.683,0,0,1,7.039,3.624H17.976a1.683,1.683,0,0,1,1.733,1.625V12.4l-3.926,2.876a.475.475,0,0,0-.187.079L12.547,17.66l-3.2-2.344h0L5.32,12.389ZM4.313,7.219v4.372L1.336,9.377ZM1.006,10.513,8.2,15.74l-7.191,5.22Zm.949,11.318,7.1-5.494,3.171,2.308a.5.5,0,0,0,.6,0l3.042-2.294,7.148,5.479Zm22.039-.892L16.8,15.719l7.191-5.228Z" transform="translate(0 0)" fill="#fff"/>
  </g>
</svg>
