<svg xmlns="http://www.w3.org/2000/svg" width="25" height="16.587" viewBox="0 0 25 16.587">
  <g id="add-member-01" transform="translate(-0.089 -0.1)">
    <path id="Path_9265" data-name="Path 9265" d="M7.327,20.725a.421.421,0,0,0,.13.3.412.412,0,0,0,.306.13h9.578a.429.429,0,0,0,.43-.422,8.117,8.117,0,0,0-.137-1.5h7.022a.429.429,0,0,0,.43-.415c0-.149.1-3.639-2.106-5.643a.432.432,0,0,0-.554,0s-2.608,1.946-4.962,0a.439.439,0,0,0-.561,0,6.539,6.539,0,0,0-1.356,1.861.426.426,0,0,0-.437.052,4.055,4.055,0,0,1-4.962,0,.439.439,0,0,0-.4-.071,5.708,5.708,0,0,0-1.3-1.829.432.432,0,0,0-.554,0s-2.608,1.946-4.962,0a.439.439,0,0,0-.561,0A7.762,7.762,0,0,0,.089,18.8a.459.459,0,0,0,.124.311.464.464,0,0,0,.313.123H7.477a9.473,9.473,0,0,0-.15,1.492Zm9.911-6.661a4.98,4.98,0,0,0,5.4,0A7.041,7.041,0,0,1,24.214,18.4H17.492a7,7,0,0,0-1.3-2.7,6.313,6.313,0,0,1,1.05-1.628ZM9.922,16.009a4.967,4.967,0,0,0,5.4,0A7.041,7.041,0,0,1,16.9,20.342H8.214a7.172,7.172,0,0,1,1.708-4.359ZM.976,18.377a7.217,7.217,0,0,1,1.7-4.313,4.992,4.992,0,0,0,5.405,0,5.14,5.14,0,0,1,.991,1.557,7.768,7.768,0,0,0-1.4,2.737Z" transform="translate(0 -4.472)" fill="#fff"/>
    <path id="Path_9266" data-name="Path 9266" d="M1.82,4.173a4.085,4.085,0,0,0,4.1,4.073h0a4.063,4.063,0,0,0,2.9-1.193,2.924,2.924,0,0,0,.3-.337,4.1,4.1,0,0,0,4.045,3.457h0a4.108,4.108,0,0,0,4.058-3.541,4.092,4.092,0,0,0,3.262,1.615h0a4.073,4.073,0,1,0-4.058-4.6,4.092,4.092,0,0,0-6.158-.422c-.1.1-.2.214-.3.331A4.1,4.1,0,0,0,1.82,4.2ZM18.194,1.9a3.268,3.268,0,0,1,5.8,1.255,3.233,3.233,0,0,1-1.23,3.285,3.219,3.219,0,0,1-2.283.947h0a3.262,3.262,0,0,1-2.948-2A3.229,3.229,0,0,1,18.188,1.9ZM10.875,3.849a3.276,3.276,0,0,1,3.967-.584,3.24,3.24,0,0,1-1.677,6.064h0A3.252,3.252,0,0,1,9.935,6.086a3.162,3.162,0,0,1,.939-2.257ZM5.917.963a3.24,3.24,0,0,1,0,6.427h0A3.252,3.252,0,0,1,2.688,4.147,3.253,3.253,0,0,1,5.917.963Z" transform="translate(-0.608)" fill="#fff"/>
  </g>
</svg>
