<svg xmlns="http://www.w3.org/2000/svg" width="25" height="24.435" viewBox="0 0 25 24.435">
  <path id="_7992_Converted_-01" data-name="7992 [Converted]-01" d="M9.984,24.54A9.866,9.866,0,0,0,17.247,7.989l1.847-1.854a.406.406,0,0,0,.292.171l3.885.425h.044a.413.413,0,1,0,.044-.825L19.73,5.513,20.8,4.44h.057l3.885.425h.07a.413.413,0,0,0,0-.806L21.526,3.7l2.013-2a.406.406,0,0,0,0-.584.419.419,0,0,0-.584,0L20.91,3.164,19.831.377a.415.415,0,1,0-.775.3l1.2,3.092h0l-.863.914L18.307,1.8a.413.413,0,0,0-.775.286l1.2,3.174V5.3l-2.07,2.108A9.866,9.866,0,1,0,9.984,24.547Zm0-18.913a9.021,9.021,0,0,1,6.095,2.362L14.124,9.945a6.3,6.3,0,1,0,.584.584L16.663,8.58A9.041,9.041,0,1,1,9.984,5.627ZM9.692,14.96a.419.419,0,0,0,.59,0l1.27-1.27a1.8,1.8,0,0,1,.286.952,1.86,1.86,0,1,1-.87-1.568L9.7,14.344a.419.419,0,0,0-.006.616ZM11.6,12.5a2.679,2.679,0,1,0,1.073,2.14,2.647,2.647,0,0,0-.521-1.574l1.974-1.974a5.466,5.466,0,1,1-.584-.584Z" transform="translate(-0.133 -0.111)" fill="#fff"/>
</svg>
