<svg id="Layer_1" data-name="Layer 1" xmlns="http://www.w3.org/2000/svg" viewBox="0 0 187.12 58.85"><defs><style>.cls-1,.cls-2,.cls-3{isolation:isolate;}.cls-2{font-size:22px;}.cls-2,.cls-3,.cls-6{fill:#fff;}.cls-2,.cls-3{font-family:Roboto-Bold, Roboto;font-weight:700;}.cls-3{font-size:18px;}.cls-4{letter-spacing:-0.01em;}.cls-5{letter-spacing:-0.01em;}</style></defs><title>logo-poker</title><g id="Group_3018" data-name="Group 3018"><g id="EZTEAM" class="cls-1"><text class="cls-2" transform="translate(61 23)">EZTEAM</text></g><g id="Planing_Pocker" data-name="Planing Pocker" class="cls-1"><text class="cls-3" transform="translate(61 51)">Planning <tspan class="cls-4" x="75.81" y="0">P</tspan><tspan x="87.3" y="0">o</tspan><tspan class="cls-5" x="97.48" y="0">k</tspan><tspan x="106.92" y="0">er</tspan></text></g><g id="_15698-01" data-name=" 15698-01"><path id="Path_27" data-name="Path 27" class="cls-6" d="M20.14,37.53H13.06a.88.88,0,0,1-.86-.87.84.84,0,0,1,.39-.71h0a6.92,6.92,0,0,0,1.75-2.59,4.93,4.93,0,0,1-3.62-.18,4,4,0,0,1-2.36-2.53c-.53-1.75,0-4.09,1.55-6.43a14.54,14.54,0,0,1,6.39-5.53.88.88,0,0,1,.6,0,14.54,14.54,0,0,1,6.39,5.53c1.52,2.34,2.08,4.68,1.55,6.43a4,4,0,0,1-2.37,2.54,4.92,4.92,0,0,1-3.6.17.16.16,0,0,0,.06.15A6.59,6.59,0,0,0,20.67,36,.87.87,0,0,1,21,37,.85.85,0,0,1,20.14,37.53ZM15,35.83h3.29a12.6,12.6,0,0,1-.87-1.56,7.55,7.55,0,0,1-.47-2.34,1,1,0,0,1,.46-.93.83.83,0,0,1,1,.07,3,3,0,0,0,3.47.54,2.25,2.25,0,0,0,1.39-1.45c.38-1.24-.12-3.11-1.34-5a13.49,13.49,0,0,0-5.25-4.72,13.47,13.47,0,0,0-5.25,4.71C10.17,27,9.67,28.9,10,30.15a2.25,2.25,0,0,0,1.4,1.45A3,3,0,0,0,14.93,31a.85.85,0,0,1,1-.13.87.87,0,0,1,.47.85,7.9,7.9,0,0,1-.41,2.3A14.41,14.41,0,0,1,15,35.83Z"/><path id="Path_28" data-name="Path 28" class="cls-6" d="M9,15.05H4.85a.86.86,0,0,1,0-1.72H9a.86.86,0,0,1,0,1.72Z"/><path id="Path_29" data-name="Path 29" class="cls-6" d="M3.67,18.12a.87.87,0,0,1-.86-.89.81.81,0,0,1,0-.27L5.92,8.83A1.06,1.06,0,0,1,7.2,8.05,1,1,0,0,1,8,8.83L10.92,17a.86.86,0,1,1-1.62.58h0L6.93,11,4.47,17.56A.87.87,0,0,1,3.67,18.12Z"/><path id="Path_30" data-name="Path 30" class="cls-6" d="M29.18,47.53H25a.86.86,0,0,1,0-1.72h4.15a.86.86,0,0,1,0,1.72Z"/><path id="Path_31" data-name="Path 31" class="cls-6" d="M27.09,52.83h0a1.1,1.1,0,0,1-1-.82l-2.95-8.13a.85.85,0,0,1,.53-1.05.84.84,0,0,1,1.09.5v0l2.33,6.48,2.46-6.57a.86.86,0,0,1,1.11-.43.85.85,0,0,1,.51,1.09l-3.06,8.14A1.12,1.12,0,0,1,27.09,52.83Z"/><path id="Path_32" data-name="Path 32" class="cls-6" d="M31.22,55.64H3a3,3,0,0,1-3-3V8.16a3,3,0,0,1,3-3H31.22a3,3,0,0,1,3,3V52.65A3,3,0,0,1,31.22,55.64ZM3,6.21a2,2,0,0,0-1.95,2V52.65a2,2,0,0,0,2,2H31.22a2,2,0,0,0,2-2V8.16a2,2,0,0,0-2-1.95Z"/><path id="Path_33" data-name="Path 33" class="cls-6" d="M34.49,58.83,31,58.42a.53.53,0,0,1-.45-.59.5.5,0,0,1,.54-.45h0l3.45.42a2,2,0,0,0,2.18-1.71l5.32-44.2A2,2,0,0,0,40.4,9.72l-3.56-.43a.52.52,0,0,1-.45-.58A.51.51,0,0,1,37,8.25h0l3.56.43A3,3,0,0,1,43.13,12L37.81,56.19A3,3,0,0,1,34.49,58.83Z"/></g></g></svg>