<svg xmlns="http://www.w3.org/2000/svg" width="15" height="19.688" viewBox="0 0 15 19.688">
  <path id="Icon_material-lock-outline" data-name="Icon material-lock-outline" d="M13.5,16.5a1.875,1.875,0,1,0-1.875-1.875A1.881,1.881,0,0,0,13.5,16.5Zm5.625-8.437h-.937V6.188a4.688,4.688,0,0,0-9.375,0V8.063H7.875A1.881,1.881,0,0,0,6,9.938v9.375a1.881,1.881,0,0,0,1.875,1.875h11.25A1.881,1.881,0,0,0,21,19.313V9.938A1.881,1.881,0,0,0,19.125,8.063ZM10.594,6.188a2.906,2.906,0,1,1,5.813,0V8.063H10.594Zm8.531,13.125H7.875V9.938h11.25Z" transform="translate(-6 -1.5)" fill="#2196f3"/>
</svg>
