<svg xmlns="http://www.w3.org/2000/svg" width="13" height="13.001" viewBox="0 0 13 13.001">
  <path id="pen-to-square-solid" d="M12.579,6.157a1.435,1.435,0,0,1,0,2.032l-.77.772L9.295,6.447l.772-.771a1.437,1.437,0,0,1,2.032,0ZM4.423,11.321,8.715,7.027,11.229,9.54,6.935,13.832a1.423,1.423,0,0,1-.562.349l-2.278.759a.578.578,0,0,1-.631-.172.574.574,0,0,1-.149-.608l.759-2.278a1.423,1.423,0,0,1,.349-.562Zm.5-4.582a.836.836,0,0,1,.821.821.806.806,0,0,1-.821.821H2.463a.836.836,0,0,0-.821.821v6.591a.821.821,0,0,0,.821.821H9.031a.82.82,0,0,0,.821-.821V13.307a.821.821,0,0,1,1.642,0v2.486a2.464,2.464,0,0,1-2.463,2.463H2.463A2.463,2.463,0,0,1,0,15.793V9.2A2.463,2.463,0,0,1,2.463,6.739Z" transform="translate(0 -5.255)" fill="#3597e2"/>
</svg>
