<svg xmlns="http://www.w3.org/2000/svg" width="12.897" height="15.923" viewBox="0 0 12.897 15.923">
  <g id="_15698-01" data-name="15698-01" transform="translate(0.25 0.25)">
    <path id="Path_27" data-name="Path 27" d="M11.931,19.24H9.9a.247.247,0,0,1-.135-.454h0a1.964,1.964,0,0,0,.5-.744,1.4,1.4,0,0,1-1.04-.052,1.149,1.149,0,0,1-.678-.727,2.3,2.3,0,0,1,.445-1.846,4.178,4.178,0,0,1,1.835-1.585.253.253,0,0,1,.172,0,4.178,4.178,0,0,1,1.835,1.585,2.328,2.328,0,0,1,.445,1.846,1.149,1.149,0,0,1-.681.729,1.4,1.4,0,0,1-1.034.049.045.045,0,0,0,.017.043,1.9,1.9,0,0,0,.5.7.25.25,0,0,1,.092.287A.244.244,0,0,1,11.931,19.24Zm-1.488-.488h.945a3.747,3.747,0,0,1-.25-.448A2.159,2.159,0,0,1,11,17.632a.287.287,0,0,1,.132-.267.241.241,0,0,1,.287.02.861.861,0,0,0,1,.158.652.652,0,0,0,.4-.416,1.9,1.9,0,0,0-.385-1.436,3.854,3.854,0,0,0-1.508-1.355,3.837,3.837,0,0,0-1.508,1.353,1.909,1.909,0,0,0-.388,1.436.655.655,0,0,0,.4.416.861.861,0,0,0,1-.164.244.244,0,0,1,.287-.04.25.25,0,0,1,.135.244,2.257,2.257,0,0,1-.118.66A3.765,3.765,0,0,1,10.443,18.752Z" transform="translate(-6.147 -9.944)" fill="#000000"/>
    <path id="Path_28" data-name="Path 28" d="M5.759,8.994H4.567a.247.247,0,0,1,0-.494H5.759a.247.247,0,1,1,0,.494Z" transform="translate(-3.174 -6.154)" fill="#000000"/>
    <path id="Path_29" data-name="Path 29" d="M3.387,6.091a.25.25,0,0,1-.233-.333l.879-2.335a.3.3,0,0,1,.592,0l.844,2.335A.247.247,0,0,1,5,5.924L4.323,4.046,3.617,5.93A.247.247,0,0,1,3.387,6.091Z" transform="translate(-2.333 -2.369)" fill="#000000"/>
    <path id="Path_30" data-name="Path 30" d="M25.939,41.484H24.747a.247.247,0,0,1,0-.494h1.192a.247.247,0,1,1,0,.494Z" transform="translate(-17.559 -29.314)" fill="#000000"/>
    <path id="Path_31" data-name="Path 31" d="M24.579,40.828h0a.313.313,0,0,1-.287-.235l-.847-2.335a.247.247,0,0,1,.152-.3.244.244,0,0,1,.316.149l.669,1.861.706-1.884a.25.25,0,0,1,.319-.126.247.247,0,0,1,.146.316l-.879,2.338A.316.316,0,0,1,24.579,40.828Z" transform="translate(-16.8 -27.138)" fill="#000000"/>
    <path id="Path_32" data-name="Path 32" d="M9.3,14.826h-8.1a.861.861,0,0,1-.861-.861V1.191A.861.861,0,0,1,1.191.33H9.3a.861.861,0,0,1,.861.861V13.967a.861.861,0,0,1-.861.859ZM1.191.632a.574.574,0,0,0-.56.574V13.967a.574.574,0,0,0,.574.574H9.3a.574.574,0,0,0,.574-.574V1.191A.574.574,0,0,0,9.3.632Z" transform="translate(-0.33 -0.33)" fill="#000000" stroke="#000000" stroke-width="0.5"/>
    <path id="Path_33" data-name="Path 33" d="M32.037,17.949l-.991-.118a.149.149,0,0,1-.129-.167.144.144,0,0,1,.164-.129l.991.121a.574.574,0,0,0,.626-.491l1.528-12.7a.574.574,0,0,0-.491-.623l-1.022-.123a.149.149,0,0,1-.129-.167.146.146,0,0,1,.164-.129l1.022.123a.861.861,0,0,1,.749.953L32.99,17.191A.861.861,0,0,1,32.037,17.949Z" transform="translate(-22.133 -2.537)" fill="#000000" stroke="#000000" stroke-width="0.5"/>
  </g>
</svg>
