<svg
  xmlns="http://www.w3.org/2000/svg"
  width="40"
  height="45"
  viewBox="0 0 40 45.714"
>
  <path
    id="trash-can-solid"
    d="M12.071,1.579A2.854,2.854,0,0,1,14.625,0h10.75a2.854,2.854,0,0,1,2.554,1.579l.643,1.278h8.571a2.857,2.857,0,1,1,0,5.714H2.857a2.857,2.857,0,1,1,0-5.714h8.571ZM2.777,11.429H37.143V40a5.72,5.72,0,0,1-5.714,5.714H8.491A5.769,5.769,0,0,1,2.777,40ZM9.92,18.571v20A1.488,1.488,0,0,0,11.348,40a1.384,1.384,0,0,0,1.429-1.429v-20a1.384,1.384,0,0,0-1.429-1.429A1.488,1.488,0,0,0,9.92,18.571Zm8.571,0v20A1.488,1.488,0,0,0,19.92,40a1.452,1.452,0,0,0,1.509-1.429v-20a1.452,1.452,0,0,0-1.509-1.429A1.488,1.488,0,0,0,18.491,18.571Zm8.652,0v20a1.429,1.429,0,0,0,2.857,0v-20a1.429,1.429,0,1,0-2.857,0Z"
    fill="#f80d0d"
  />
</svg>
