<svg xmlns="http://www.w3.org/2000/svg" width="18" height="12.6" viewBox="0 0 18 12.6">
  <path id="users-line-solid" d="M5.94,33.8A1.8,1.8,0,1,1,4.14,32,1.8,1.8,0,0,1,5.94,33.8ZM.9,38.3a1.8,1.8,0,0,1,1.8-1.8H5.4a1.783,1.783,0,0,1,.939.264A3.61,3.61,0,0,0,4.208,39.2H1.8a.9.9,0,0,1-.9-.9Zm10.8-1.558a1.783,1.783,0,0,1,.9-.242h2.7a1.8,1.8,0,0,1,1.8,1.8.9.9,0,0,1-.9.9H13.883A3.674,3.674,0,0,0,11.7,36.742ZM11,37.467A2.7,2.7,0,0,1,12.94,39.2a2.654,2.654,0,0,1,.155.9.9.9,0,0,1-.9.9H5.9a.9.9,0,0,1-.9-.9,2.654,2.654,0,0,1,.155-.9,2.707,2.707,0,0,1,1.856-1.713A2.64,2.64,0,0,1,7.7,37.4h2.7A2.7,2.7,0,0,1,11,37.467ZM15.84,33.8a1.8,1.8,0,1,1-1.8-1.8A1.8,1.8,0,0,1,15.84,33.8ZM6.8,34.25a2.25,2.25,0,1,1,2.25,2.25A2.25,2.25,0,0,1,6.8,34.25ZM17.1,42.8a.9.9,0,1,1,0,1.8H.9a.9.9,0,1,1,0-1.8Z" transform="translate(0 -32)" fill="#000000"/>
</svg>
